<?xml version="1.0" encoding="utf-8" ?>
<svg xmlns="http://www.w3.org/2000/svg" xmlns:xlink="http://www.w3.org/1999/xlink" width="16" height="16">
	<path transform="scale(0.03125 0.03125)" d="M87.621 442.896L81.5159 435.898L41.605 483.986C33.7701 492.091 21.2615 481.445 27.6137 472.377C30.001 468.969 33.0612 465.833 35.7188 462.619L62.3077 430.297C65.1873 426.704 67.999 422.746 71.387 419.635C72.7011 418.428 72.3545 416.84 72.3294 415.244L72.3439 122.223L63.9822 122.232C59.7717 122.227 55.7119 122.521 52.375 119.412C48.9312 116.204 48.7627 109.731 52.0963 106.375C55.3017 103.148 59.8493 103.471 64.0292 103.481L72.2891 103.517L72.2675 75.0027C71.217 74.6511 69.7567 74.8227 68.6432 74.8049L39.7633 72.3304C29.667 70.764 2.49229 64.7847 2.02994 51.0448C1.34149 30.5852 34.8886 26.4244 49.6559 24.4906C55.1389 23.7725 60.3451 23.0205 65.8903 22.8419L92.382 23.0212C109.959 23.8939 139.647 27.7211 151.999 39.2637C159.329 46.1136 159.502 53.6358 152.572 60.8387C142.68 71.1199 116.753 74.0719 103.447 74.6712L90.1578 74.8327L90.2673 103.378L99.5866 103.407C103.263 103.407 106.963 103.298 109.93 105.839C114.211 109.505 113.837 115.659 110.051 119.55C107.044 122.64 102.354 122.219 98.3851 122.202L90.2822 122.15C89.9318 124.008 90.1814 126.274 90.1813 128.173L90.1266 412.455C90.1248 416.632 90.2176 417.325 92.8274 420.639L132.568 468.454C133.856 469.929 135.408 471.519 136.309 473.264C140.556 481.482 129.434 491.261 122.333 484.687C118.555 481.19 115.363 476.48 112.049 472.521L87.621 442.896ZM71.6513 41.413C62.9493 41.6936 28.5488 44.9184 23.6145 49.5761C41.9228 56.9139 68.9715 56.5333 88.2913 56.4839C101.587 56.4571 123.936 55.4339 135.664 50.0381C126.143 44.3839 101.141 42.1481 90.1579 41.5934L71.6513 41.413Z"/>
	<path transform="scale(0.03125 0.03125)" d="M433.721 439.125L430.556 435.383L394.705 478.502C393.144 480.486 391.643 482.615 389.817 484.364C382.17 491.684 370.037 480.978 376.354 472.036C378.123 469.531 380.417 467.252 382.444 464.945L408.584 433.253C412.396 428.598 416.372 423.115 420.959 419.196C422.619 417.778 421.856 415.283 421.837 413.4L421.922 122.234L413.664 122.229C409.259 122.216 405.333 122.326 401.802 119.181C398.221 115.993 397.995 109.843 401.345 106.375C404.623 102.982 409.105 103.492 413.401 103.486L421.836 103.495L421.874 74.9967C420.739 74.6318 419.154 74.8036 417.944 74.7915L409.609 74.6503C396.366 74.0469 370.286 71.3402 360.017 61.6601C346.876 49.2732 358.769 37.2899 372.022 31.9432C382.779 27.6029 393.174 26.0364 404.553 24.6698L417.198 23.1325C420.501 22.8546 423.86 22.8909 427.173 22.8381L449.178 22.9775C466.365 23.9438 509.66 29.3706 509.768 49.8171C509.885 72.2705 454.519 74.7074 439.492 74.7956L439.628 103.343C443.922 103.632 452.116 102.565 455.872 103.82L456.25 103.955C465.098 107.064 463.419 120.072 454.625 122.061C453.047 122.418 451.137 122.232 449.522 122.229L439.577 122.187L439.624 416.625C439.674 418.792 444.95 424.371 446.444 426.253L475.14 461.272C478.294 465.091 481.996 468.829 484.845 472.865C491.095 481.722 478.292 491.559 470.886 484.288L433.721 439.125ZM421.605 41.5018C414.857 41.8401 408.182 42.7526 401.5 43.6977L388.173 45.987C384.042 46.8533 379.957 47.8401 376.278 49.9788C391.25 57.1647 425.199 56.5294 441.475 56.4839C456.73 56.4277 473.544 55.192 487.783 49.3075C478.791 44.8336 456.519 42.1624 445.477 41.601L421.605 41.5018Z"/>
	<path transform="scale(0.03125 0.03125)" d="M175.815 216.018L105.684 215.852C105.364 213.152 105.449 210.346 105.446 207.628L105.353 154.079L145.13 153.943L215.242 154.025L215.285 208.555C203.395 211.526 200.378 216.188 187.449 216.078L175.815 216.018Z"/>
	<path transform="scale(0.03125 0.03125)" d="M357.067 216.015L323.014 216.116C319.031 216.178 316.334 215.512 312.558 214.115L299.446 208.875C298.355 208.46 297.416 208.258 296.448 207.547L296.527 153.945L346.053 153.943L406.521 153.851L406.352 216.02L357.067 216.015Z"/>
	<path transform="scale(0.03125 0.03125)" d="M262.746 486.814C257.221 487.281 248.983 487.449 243.562 486.55L217.75 480.781C166.169 464.182 132.646 416.204 128.074 362.71C124.732 323.611 138.264 283.132 164.551 254.072L167.24 251.078C167.906 250.273 168.16 249.646 169.149 249.163L106.205 249.067C104.816 246.959 105.47 233.631 105.603 230.935C107.709 230.608 110.215 230.843 112.369 230.838L187.344 230.822C193.385 231.001 193.912 231.505 199.469 228.621L208.138 224.317C220.955 218.669 235.148 215.219 249.087 214.344C268.33 212.738 287.217 217.52 304.833 225.042L312.802 228.775C319.589 232.229 318.403 231.243 326.059 230.921L405.888 230.878L405.954 249.074L342.788 249.023C345.221 250.689 347.305 253.779 349.258 255.997C382.777 294.074 392.202 348.535 376.744 396.375C361.078 444.856 314.688 485.285 262.746 486.814ZM250.449 233.054C186.194 236.773 141.858 295.159 145.863 358.07C145.977 359.869 146.062 361.752 146.406 363.522L150.163 383.023C163.642 434.397 207.197 471.166 261.375 468.286C331.798 464.407 376.271 394.053 363.991 326.804C353.944 271.779 307.497 230.369 250.449 233.054Z"/>
	<path transform="scale(0.03125 0.03125)" d="M261.562 453.975C256.133 454.152 250.411 454.357 245.003 453.86C189.549 448.759 153.978 394.676 157.798 341.6C161.522 289.856 199.693 251.86 250.6 247.351C254.627 247.179 258.82 247.03 262.832 247.335C309.206 250.857 344.107 286.163 352.318 331.5C363.058 390.8 323.235 450.972 261.562 453.975Z"/>
</svg>
