<?xml version="1.0" encoding="utf-8" ?>
<svg xmlns="http://www.w3.org/2000/svg" xmlns:xlink="http://www.w3.org/1999/xlink" width="512" height="512">
	<path fill="white" transform="scale(0.5 0.5)" d="M0 0L0 1024L1024 1024L1024 0L0 0Z"/>
	<path transform="scale(0.5 0.5)" d="M120.444 206.022L121.455 206.894L120.444 206.022C120.977 204.994 121.273 203.916 122.5 203.537C122.873 203.421 123.598 203.438 124 203.434L124.353 202.607L123.103 201.75C123.473 200.464 124.251 200.12 125.25 199.285L126.75 199.551C126.955 198.687 127.015 197.886 127.056 197L128.25 195.12L129.75 195.355L129.554 193.489C129.462 192.291 129.721 191.803 130.201 190.75L130.775 190.943C131.637 191.213 131.294 191.133 132.25 191.184C133.006 189.662 132.37 189.596 132.622 188.5C132.771 187.852 135.766 185.762 136.5 185.482C136.979 185.3 137.327 185.294 137.811 185.25C137.743 184.442 137.655 184.289 137.25 183.626L138.523 181.504L139 181.419L139.75 182.545C140.94 181.378 140.496 180.262 142 180.064L142.982 179.75L142.632 178.861L142.341 177.977C142.727 177.503 143.006 176.915 143.5 176.556C144.297 175.976 145.434 176.207 145.945 175C146.551 173.57 146.11 173.258 147.25 171.911L148.75 172.572C150.276 170.726 149.613 169.6 151.75 168.294L152.775 168.25C153.037 167.271 152.561 166.854 152.657 166.25C152.718 165.863 153.953 164.482 154.25 164.077C155.132 164.082 155.102 164.236 155.767 164.75L156.487 162.497L157.061 162.008C158.742 160.552 159.749 159.352 160.987 157.5L161.75 156.445C163.852 156.13 165.023 153.796 166.472 152.25C169.017 149.534 171.922 147.179 174.539 144.539C177.388 141.664 180.152 137.287 183.867 135.75C184.547 134.1 184.995 133.848 186.361 132.772L187.819 132.75C187.72 131.699 187.878 132.227 187.25 131.198L187.844 130.774L197.502 123.043C198.421 122.266 200.299 119.886 201.25 119.484C201.471 119.39 201.726 119.534 201.963 119.568L202.75 119.698C202.75 118.778 202.837 119.271 202.354 118.25C203.42 116.884 204.231 116.05 205.788 115.211C206.431 114.865 206.146 115.04 206.614 114.422C208.623 111.769 213.052 110.384 214.858 107.867C215.148 107.463 214.99 106.852 215.25 106.429C215.441 106.118 216.754 105.45 217.128 105.207C217.612 105.918 217.472 105.532 217.57 106.355L218.819 105.817L219.139 104.25L222.806 103.75C223.18 102.541 222.231 102.127 223.5 101.596C224.717 101.086 225.039 101.752 226.083 100.5L225.78 99.25C226.69 99.0214 227.317 98.9792 228.25 99.0799L229.92 97.75L229.58 96.9234L229.6 96.1052L230.472 95.6766L231.75 96.4817C232.973 95.3888 233.649 94.7544 234.121 93.1092C235.238 92.2992 236.122 92.9127 236.909 92.1913C240.894 88.5394 245.368 86.2456 249.93 83.4471C254.188 80.8357 258.35 77.9423 262.842 75.75L263.25 74.5236L263.766 74.6087C264.481 74.6574 265.038 74.5243 265.682 74.2209C269.326 72.5022 272.722 69.83 276.292 67.8687C282.398 64.5155 289.423 61.6246 295.16 57.6993C296.07 57.0762 296.639 56.904 297.707 56.71L299.25 54.9459L300.852 55.75L301.054 55.1821C301.31 54.5269 301.571 54.1282 302 53.5866L302.994 53.75L304.25 53.8941C304.686 53.2363 304.883 52.7721 305.046 52C306.257 51.4079 306.957 51.5618 308.25 51.711L308.683 51.2612C310.126 49.817 311.871 48.5448 314 48.4007C314.773 48.3484 314.855 48.4168 315.5 48.5927C315.805 47.9513 315.772 47.7084 315.75 47.0164L316.75 46.4058L317.201 46.6806C317.915 47.0883 317.636 46.9516 318.529 47.1532C319.418 46.4426 319.765 45.9172 320.25 44.891C321.953 44.6684 322.274 46.1004 323.488 44.5L324.25 43.1438C326.145 42.9344 326.147 44.1749 327.882 43.25L328.04 42L329.5 41.0893L330.401 41.5L330.521 42.3647C331.925 41.5427 331.097 41.2655 331.92 40.4438C332.85 39.5164 333.427 40.5155 334.326 40.3186C335.722 40.013 335.359 37.931 338.25 38.1285L339 38.5482C339.744 37.9046 339.953 37.517 340.25 36.5826C340.659 36.516 341.965 36.1566 342.292 36.25C343.851 36.6957 342.847 37.4786 344.51 36.25L344.936 34.9422C346.648 34.1089 346.732 34.2121 348.53 34.644L350.25 32.4322L352.266 32.2394L352.755 33.25C354.52 32.3398 354.124 31.3856 355.5 30.5896L355.796 30.9552C356.315 31.5407 356.129 31.3384 356.962 31.75C357.36 31.4285 358.414 30.3555 358.833 30.24C360.468 29.7889 361.198 31.0128 362.734 29.6976C363.638 28.9237 364.234 28.8271 365.366 28.6571C367.693 28.3074 370.04 27.3756 372.25 26.5867L373.75 27.704L374.334 27.1671L373.955 26.25C376.991 24.7291 380.485 24.9631 383.5 23.4159L384.148 23.5519C385.11 23.7304 384.73 23.6951 385.75 23.5831L387.093 22.25L388.524 22.6689L390 21.4251C390.77 22.0565 390.705 22.2615 391.75 22.2216L392.25 20.5807C394.098 20.6756 393.727 22.1185 395.378 21.25L395.329 20.25L396.75 19.5383C397.453 19.8063 398.09 20.105 398.75 20.4651L400.75 18.5207C401.946 18.6253 402.051 18.7556 403 19.5148C403.868 18.537 403.563 19.0706 403.97 17.9461L404.356 17.936C406.02 17.8755 406.951 17.5083 408.435 18.36C409 17.265 408.931 17.8183 408.75 16.7173C411.034 16.501 413.063 16.2963 415.25 15.5306L415.599 15.9944C416.166 16.6844 415.929 16.45 416.837 16.8351L417.983 15.3598C419.027 15.436 419.448 15.8205 420.25 16.4593L421.25 15.0167L423.377 15.3753L424.75 14.1551L425.312 14.2829C426.236 14.4799 425.899 14.4128 427 14.5113L428.25 13.3346L429.75 14.0111C430.587 13.5015 430.891 13.193 431.5 12.4609L433.75 13.5254L435.75 11.8739C437.016 12.1646 436.967 12.2856 437.75 13.3485C438.62 12.7178 438.914 12.2093 439.382 11.25L440.5 11.089L442 12.4321C442.826 11.8895 443.103 11.4943 443.551 10.6182L444.544 10.75L445.75 12.4206L446.591 12.0713L447.25 10.4312C448.854 10.914 449.652 10.4697 451.25 10.9976C452.256 10.4234 452.191 10.3577 452.75 9.43686C454.518 10.136 454.955 10.5373 456.865 10.25L458 9.31588L459.5 10.1355L459.983 9.89082C462.83 8.54547 464.492 10.8897 467.25 8.31726L468.5 9.00242L469.391 8.68612C470.513 8.3134 471.112 8.46153 472.25 8.755L473.109 8.96287L473.75 9.12794C474.869 8.56702 475.333 8.04308 476.594 8.3276C477.82 8.60442 479.003 8.55539 480.25 8.50699C482.378 7.06095 484.199 7.37597 486.703 7.80213C488.584 8.12221 490.003 7.80156 491.75 7.06423C494.034 7.9725 495.389 7.11004 497.75 7.07264C499.799 7.04018 501.67 7.13728 503.75 6.92968C504.857 6.13755 504.835 6.19812 506.232 6.4485C507.253 6.63158 506.232 6.43741 507.337 6.78962C508.949 7.30321 511.156 6.51141 512.75 6.17679C514.195 5.87354 515.449 6.39766 516.873 6.51549C518.798 6.67483 523.849 5.72096 525.188 6.61251L525.75 6.97504L526.174 7.25638C528.627 8.41822 535.956 7.05576 538.762 6.75C540.255 6.58725 539.882 7.16013 541 7.61331C541.823 7.947 543.968 7.84133 544.886 7.75L546 8.6286C547.012 8.26921 547.293 7.92855 548.303 8.26328C549.638 8.70622 551.119 8.47334 552.5 8.37914L553.75 7.10566C554.512 7.77558 554.591 7.87111 554.941 8.75L555.611 8.66041C556.852 8.52291 558.013 8.60521 559.25 8.72744L560.5 8.00252L560.889 8.16946C563.703 9.29533 566.631 8.76591 569.5 9.65247L571.75 8.98128C572.501 9.38865 573.099 9.81964 573.75 10.3726C575.336 9.87741 575.843 9.41649 577.405 10.0903L578.25 11.4039L578.694 11.1366C579.316 10.779 579.942 10.5186 580.606 10.25L583 11.6166L585.25 10.6198L585.856 11.1926C586.627 11.8847 587.445 12.1746 588.5 12.169C588.988 12.1664 589.303 12.0522 589.75 11.9269C591.292 12.8208 591.693 11.871 592.983 12.25C593.8 12.49 594.904 13.2332 595.75 13.5601L598 12.1752L600.25 14.096L604.25 12.8036L604.959 14.0947L605.511 14.1393C606.494 14.2326 608.493 14.9293 609.32 14.7925C610.495 14.598 610.082 13.4466 611.239 14.5643C611.867 15.1705 612.191 15.3191 613 15.5538C614.041 15.4122 614.997 15.2601 616 14.9425C616.501 15.8684 616.607 16.0208 617.5 16.5673L620.75 16.0586L622 17.933C622.995 17.8146 623.828 17.5761 624.775 17.25C626.494 17.9883 626.025 19.3758 627.75 19.4812L629.25 18.6075L629.75 20.3142C631.127 20.4654 630.763 19.5913 631.75 19.385C632.324 19.2649 632.898 19.6283 633.472 19.75C633.764 20.5162 633.878 20.5869 633.75 21.4372L634.141 21.3222C635.515 20.9906 636.485 20.9751 637.75 21.6226L640 21.204C640.967 22.2384 641.151 22.6056 642.5 22.9498L644.313 22.25C645.783 23.7899 645.874 23.7697 648 24.0211L649.25 23.3283C649.885 24.3305 649.626 23.806 650.035 24.8994C650.758 24.9916 652.166 24.9738 652.786 25.25C653.244 25.4539 653.813 26.6456 654.25 26.7752C655.606 27.1773 655.806 25.9117 657.524 27L657.631 28.3487C659.05 28.067 660.333 27.4199 661.639 28.3652C661.954 28.5934 662.275 29.0974 662.5 29.4195L663.054 29.2132C663.782 28.9799 664.149 29.0055 664.883 29.1158L666 30.4887C667.134 30.3677 667.63 30.2894 668.5 29.5332L668.962 30L668.839 31.0442C670.113 32.1296 671.511 31.6115 672.805 32.25C673.313 32.5004 674.078 33.358 674.525 33.75L676 33.0943C677.131 33.6106 678.153 34.1136 679.172 34.8301C681.399 36.3961 683.986 36.9818 686.5 37.8758L695.666 41.5661C698.7 42.8074 701.639 44.6183 704.75 45.5933L706.334 44.6985L706.373 45.2819C706.432 45.9371 706.556 46.4553 706.75 47.077C708.11 47.7375 709.422 47.42 710.865 47.25L711.25 47.9251L711.039 48.5C712.288 49.0637 712.676 48.4924 713.8 48.7077C714.16 48.7766 728.358 56.511 728.819 56.8771C729.649 57.5364 730.009 57.486 730.996 57.6936C732.687 58.0494 734.291 59.1898 735.378 60.5L735.525 61.3248L736.065 61.3154C738.224 61.3038 739.219 61.5533 740.785 63.1078L741.509 63.8612C742.75 63.8465 742.94 63.7999 744 63.1562L744.563 63.75L744.25 64.8267C746.39 66.1012 748.012 66.876 749.929 68.5L750.75 69.0799L751.475 68.6931L755.5 71.6743L756.75 71.42C757.433 72.1629 757.282 73.0268 757.546 73.3455C757.654 73.4759 759.661 73.5302 760.226 73.9548C764.467 77.1401 770.75 82.2754 775.75 83.755L775.978 84.2484C777.058 85.9393 785.608 91.346 787.458 91.6852L787.985 91.75L790.5 94.0165C791.261 93.9256 791.746 93.8252 792.452 93.5895L792.016 95L800.033 101.477C804.375 104.679 808.884 107.405 812.796 111.186C813.353 111.724 813.161 111.518 813.941 111.803C815.891 112.516 817.539 114.136 819.457 115.083C819.638 116.37 819.435 116.245 818.75 117.264C819.616 117.325 820.424 117.311 821.289 117.25C823.482 118.316 824.992 120.155 826.75 121.796C830.394 125.197 833.714 128.53 836.75 132.508C837.649 132.45 838.164 132.344 839 132.078L839.25 132.403L838.468 133.5C839.913 135.274 846.75 139.499 846.75 141.117L845.656 141.25L845.831 142.165L846.5 142.477L847.5 141.56C848.28 142.167 848.56 142.569 848.984 143.421C849.927 145.31 855.075 147.837 854.886 148.898L854.581 149.75L855.053 149.928C858.116 151.228 859.672 154.255 861.75 156.698L862.75 156.091L863.814 157.095L863.683 157.61C863.476 158.483 863.547 158.178 863.423 159.25C864.295 159.564 864.828 159.597 865.75 159.515L865.986 160.013C866.989 162.041 868.2 163.263 869.877 164.75L869.75 165.787L870.567 166.292C873.1 167.928 874.593 170.718 877.212 172.25L877.001 173.75L881.504 178.915L882.54 178.714L883.038 179.5L882.057 181C882.625 182.027 883.31 182.358 884.264 182.992C885.935 184.102 887.271 185.092 887.72 187.138L887.882 188C889.317 189.533 891.675 189.024 891.551 191.558L891.489 192.25C892.578 193.164 894.609 194.373 894.735 195.75L894.194 196.382C895.216 196.439 894.678 196.48 895.801 196.198C897.436 199.01 898.719 201.87 902.044 202.938L902.643 204L901.81 205.25C903.242 207.343 905.884 209.469 907.918 211C907.881 212.218 907.892 211.993 907.25 212.863L908.03 212.75L908.976 213.25C908.913 214.425 908.822 214.855 909.774 215.75L912.291 217.25L912.323 217.757C912.459 219.416 912.728 220.191 913.704 221.523C914.111 222.079 914.337 222.606 914.567 223.25L914.25 224.791L914.818 225.25L916 224.881C917.946 227.201 918.513 228.733 919.401 231.5C919.521 231.872 919.76 232.113 920 232.395C921.712 232.775 922.026 233.125 923.303 234.25C923.452 234.864 923.462 235.529 923.75 236.091C924.693 237.932 926.901 236.964 925.25 239.775L925.79 239.92C926.62 240.192 927.167 240.614 927.857 241.127L928.403 242.5L927.631 244C928.444 244.642 929.292 244.947 930.25 245.323L930.166 248.4L932.75 250.02C932.994 251.305 933.006 252.129 932.75 253.412L935.75 255.402L939.59 263.358L941.25 263.556C941.438 264.469 941.446 264.781 941.297 265.75L947.174 276.329C947.621 277.25 948.3 277.982 948.965 278.75L949.034 281.25C949.835 281.644 950.605 281.967 951.451 282.25L951.396 283.031C951.366 284.13 951.606 284.506 951.925 285.5C952.197 286.345 952.321 287.224 952.392 288.106C953.353 288.115 953.543 287.778 954.315 287.25C954.652 288.671 953.561 288.597 954.252 289.859C954.836 290.925 954.909 291.833 955.089 293L955.292 294.25L957.381 295.567C957.258 296.493 957.104 296.985 956.75 297.824L957.323 297.911C958.242 298.087 957.911 298.008 958.83 298.581L958.16 300.5L960.589 302.75C960.179 303.566 959.807 304.106 959.25 304.813L961.804 306.681C961.738 307.421 961.457 308.128 961.898 308.747C963.311 310.728 964.03 313.194 965.599 315L965.076 317.25L966.912 318.75L966.506 320.5L967.25 321.613L969.27 321.75L967.98 323.5C968.435 324.6 970.434 325.611 970.264 326.172C970.078 326.785 970.005 327.367 969.929 328L970.629 328.65C971.486 329.455 972.157 330.315 972.865 331.25C972.533 332.001 972.178 332.685 971.75 333.386L973.619 335.25L973.389 335.904C973.095 336.825 973.148 336.449 973.25 337.381L974.75 338.311L975.047 342.98L974.502 343.498L975.047 342.98L976.402 343.5L976.189 344.043C975.811 345.237 976.154 345.989 976.765 347.008L977.25 347.792L976.697 348.5C977.621 349.817 978.407 351.008 979.018 352.5L978.344 353.75L979.151 353.958C980.293 354.282 980.743 354.875 981.493 355.75C981.191 356.635 980.823 357.112 980.201 357.806L980.586 358.17C981.749 359.296 982.28 359.938 982.704 361.5L982.186 363.35L984.065 365.25C983.92 366.573 983.65 367.166 982.883 368.25C984.105 368.552 984.674 368.421 985.429 369.5L984.974 372.25L986.863 373.75C986.561 374.725 986.093 375.244 985.422 376C986.614 377.083 987.123 375.967 988.046 377.5L987.09 379C987.408 379.984 987.887 380.497 988.58 381.25L987.917 382.75L988.252 383.231C988.64 383.822 988.86 384.342 989.097 385C988.565 385.898 988.48 386.018 987.561 386.5L988 386.928C989.403 386.68 989.288 386.682 990.461 387.5L990.068 388.092C989.381 389.509 990.884 391.343 990.877 393.02L992.223 394.25L991.203 395.83L992.714 398.25L992.134 400C992.955 400.687 993.371 400.843 993.75 401.871L992.551 403.25C992.938 404.407 993.626 404.788 994.561 405.5C994.219 406.383 994.011 406.603 993.363 407.25C993.94 408.578 994.502 409.243 995.498 410.25C994.684 411.116 994.223 411.293 994.041 412.5L994.474 412.723C995.02 413.03 995.333 413.339 995.75 413.793L994.972 415.25L995.619 416.75L995.174 417.799L996.5 417.972L996.975 418.75L995.75 420.487L997.101 422.5L996.75 423.908L997.695 425.25L996.847 427L997.334 427.524C998.033 428.323 997.798 427.987 998.186 429.039L997.286 431C997.852 432.012 998.197 432.614 998.49 433.75L997.409 434.75L998.007 435.002C998.679 435.296 999.275 435.624 999.901 436C999.78 437.25 999.195 437.973 998.528 439L1000.71 441.75C1000.43 442.594 1000.14 443.074 999.559 443.75C1000.24 444.597 1000.38 444.656 1001.41 445.018C1001.2 446.108 1000.81 446.593 1000.21 447.5L1002.47 451.25L1000.85 453L1001.25 453.415C1002.46 454.71 1002.55 454.976 1002.68 456.75C1001.97 457.712 1001.54 458.145 1001.25 459.316L1002.87 460.5C1002.86 461.714 1001.67 463.33 1002.03 463.761C1002.87 464.778 1003.44 465.363 1003.48 466.75L1002.3 468.478C1002.63 469.31 1003.01 469.825 1003.59 470.5L1003.25 474.541L1002.59 474.25L1002.25 474.957L1002.87 475.25L1003.47 475.032C1004 476.681 1003.95 478.103 1003.48 479.75L1003.73 480.406C1004.29 482.007 1003.96 483.955 1003.94 485.626C1003.89 489.439 1004.44 493.502 1004.5 497.382L1004.14 527.199C1004.06 530.35 1004.78 536.177 1003.25 538.849C1003.78 539.75 1004.36 540.272 1003.88 541.349L1003.06 542.5C1003.38 543.378 1004.35 545.164 1003.94 545.982C1003.54 546.789 1002.98 547.19 1002.3 547.75L1002.52 548.206C1003.27 549.836 1003.52 551.079 1003.71 552.841C1003.87 554.285 1004.16 555.593 1003.75 557.021L1002.95 557.161L1002.16 557.572C1002.54 559.572 1003.01 559.951 1001.92 561.75C1002.73 562.147 1002.72 561.974 1003.55 561.75C1003.04 563.046 1001.39 563.71 1001.83 564.929C1002.08 565.613 1002.22 566.174 1002.33 566.885L1000.25 569.835L1001.25 571.33L1000.5 572.027L999.75 572.79L1000.81 574.25L999.75 575.789L1000.92 577C1000.77 577.923 1000.96 577.853 1000.17 578.464C999.606 578.905 999.204 579.291 998.75 579.833L999.856 581.25C998.682 582.815 998.798 583.787 999.01 585.75L999.311 587.33C998.461 587.925 998.187 587.849 997.967 589C997.811 589.819 998.182 591.602 997.88 592.25C997.725 592.582 996.747 593.148 996.75 593.355C996.771 594.799 999.101 594.202 997.106 596.136L995.884 596.974C996.077 598.146 997.162 597.9 996.754 599.047C996.508 599.739 996.53 600.33 996.342 601C995.938 602.443 994.429 602.03 995.25 603.464L996.531 604.75C995.888 605.343 995.183 605.095 994.884 605.372C994.605 605.632 994.393 607.787 994.33 608.25L995.849 609.25C994.694 609.755 995.306 609.581 994.005 609.75C992.936 612.573 995.696 612.342 992.203 615.25C993.049 617.978 992.145 618.361 991.5 621L991.298 622.75C990.818 623.446 990.453 623.919 989.824 624.5L990.641 626L989.061 629C989.31 629.804 989.688 630.199 989.279 630.973C988.712 632.046 988.27 632.949 987.327 633.75L988.398 634.75L988 635.995L987 636.095L986.25 636.459C986.738 638.654 986.665 639.098 985.977 641.25L984.466 642C984.652 643.973 986.249 642.262 985.25 645.271C984.557 645.79 984.061 646.071 983.226 646.306C983.747 647.427 984.146 647.582 983.737 648.797L983.125 651L982.572 653.547C982.217 655.29 981.534 655.949 980.357 657.25C980.463 658.177 981.667 659.082 981.21 659.613C980.614 660.306 979.804 660.462 978.973 660.75C979.333 661.658 979.584 662.023 980.192 662.75C979.745 663.72 979.172 664.266 978.407 665L978.645 665.48C978.947 666.192 978.914 666.622 978.861 667.371L977.75 668.088C976.945 667.627 976.576 667.334 975.946 666.694L975.75 667.32L976.913 669L976.636 669.88C976.265 671.092 976.182 672.116 976.352 673.373L975.25 673.855L974.25 673.402L974.067 673.877L974.986 675C973.521 678.282 972.315 682.747 970.085 685.5L970.169 686.214C970.28 687.474 969.743 688.664 969.317 689.824L968.5 690.425L967.364 690.25C967.75 691.186 968.122 691.844 968.767 692.626L967.25 695.842L965.615 696.25L965.826 698.912C965.18 699.622 964.602 700.205 963.81 700.75L964.478 702C963.795 702.882 962.317 704.276 962.25 705.285C962.147 706.811 960.991 708.566 960.414 710C958.413 714.977 956.431 720.352 953.276 724.75L953.593 725.75C952.979 726.736 952.403 728.177 951.375 728.69C950.52 729.118 950.824 728.95 950.057 729.75L951.13 731C950.215 732.691 947.892 733.885 948.416 735.75L948.838 737C947.82 738.377 946.802 739.24 945.426 740.25L944.174 740.128C944.788 741.918 944.778 741.866 943.949 743.506C943.542 744.31 943.7 744.005 943.081 744.825C942.54 745.542 942.356 746.092 942.047 746.917C941.73 747.764 941.222 748.491 940.737 749.25C939.676 749.515 940.253 749.422 939 749.483L938.974 750.016L939.974 750.529C939.475 753.562 936.774 756.858 935.484 759.75C934.483 760.109 934.475 760.094 933.465 759.75C933.47 760.875 934.177 760.872 934.223 761.5C934.259 761.992 933.387 763.534 933.062 763.901C932.495 764.541 931.829 764.766 931.058 765.06L930.75 765.995L932.303 765.634C931.547 767.108 930.942 768.403 929.25 768.949C928.209 771.075 927.328 774.439 924.83 775.155L924.331 775.25C924.72 776.698 924.982 777.45 924.026 778.75C923.434 779.556 922.446 780.111 921.473 780.25C921.446 782.557 921.092 782.721 919.75 784.494L918.387 784.75L918.626 785.188L919.321 786.75C918.024 787.721 916.818 788.508 915.887 789.856C915.167 790.899 914.458 791.302 913.372 791.929C913.238 792.873 913.327 793.335 913.52 794.25C912.919 795.051 912.326 796.305 911.25 796.461L910.25 796.394C909.79 797.461 909.519 798.297 909.391 799.453C907.425 801.496 905.536 803.133 904.793 805.945C904.524 806.963 903.849 807.481 903.105 808.179L900.75 808.586L900.607 809.362L901.56 810C900.882 811.95 899.27 813.136 897.606 814.25C897.463 815.156 897.457 815.842 897.583 816.75C896.484 817.46 895.413 818.146 894.416 819C894.186 821.085 892.84 821.761 891.25 823.029L890.627 823.5L890.559 824.061C890.197 825.396 888.829 826.518 887.921 827.522L881.554 834.524C879.835 836.465 878.306 838.864 876.304 840.491C875.467 841.171 875.817 840.786 875.305 841.633C874.103 843.62 871.661 844.554 871.25 846.98C870.846 847.332 869.945 848.344 869.5 848.506C869.329 848.568 868.163 848.575 868.082 848.633C867.874 848.782 867.52 850.269 867.381 850.591C866.897 851.718 865.639 852.653 864.75 853.477L863.48 853.75C863.077 855.457 862.506 855.733 861.25 856.907L860.186 856.631L860.579 857.5C856.098 863.137 849.964 868.623 844.072 872.75L843.75 874.271L843.195 874.573C841.708 875.399 839.753 876.392 839.146 878.112L839.059 878.528L838.25 878.956C835.323 880.585 832.022 884.503 829.406 886.79C825.38 890.309 820.578 893.478 817 897.38L816.453 897.471C815.545 897.732 815.299 898.178 814.659 898.79C812.784 900.587 810.704 900.708 809.989 903.5C808.792 904.169 808 904.631 806.578 904.633L806.227 905.066C802.708 909.246 796.109 912.887 791.459 915.874C790.154 916.713 788.423 917.394 787.25 918.372C786.33 919.139 786.395 919.672 786.348 920.75C784.721 920.271 784.665 920.468 783.179 921.286L762.056 933.746C759.165 935.489 755.815 936.996 753.153 939.034C749.542 941.798 744.403 943.667 740.328 945.765L695.326 966.218C688.862 968.862 682.085 970.892 675.75 973.814L674.25 973.446C673.754 974.108 673.355 974.713 673 975.461C671.861 975.17 671.105 974.721 670.073 975.555C669.791 975.783 669.457 976.321 669.25 976.629L667.25 977.121L666.5 976.62C662.878 977.858 657.484 980.605 653.739 980.616C651.647 980.623 650.582 982.097 648.75 982.574C648.271 982.698 646.813 982.327 646.25 982.255C645.822 982.859 645.555 983.311 645.25 983.968C643.658 984.201 644.297 983.64 643.25 983.584C641.441 983.485 636.688 985.726 634.682 986.298L617.422 990.692C614.895 991.325 611.16 990.855 609.538 992.992L609.25 993.391C608.366 992.82 607.875 992.3 606.75 992.565C605.533 992.852 603.751 994.196 602.587 994.037C600.565 993.761 598.242 994.616 596.25 995.01L585.75 996.908C583.49 997.285 581.216 997.248 579 997.554L578.281 997.814C576.249 998.52 574.48 997.872 572.25 998.706C570.667 999.299 567.977 999.219 566.25 999.396L550.25 1000.76L529.9 1002.17C526.529 1002.5 523.174 1003.32 519.787 1003.43C510.911 1003.72 502.329 1003.08 493.507 1002.52C491.008 1002.36 488.488 1002.64 486 1002.38C482.684 1002.05 479.428 1001.22 476.095 1000.97C470.929 1000.6 465.629 1001 460.504 1000.27L449.573 999.145C441.408 997.998 433.464 996.275 425.489 994.25C425.792 993.316 425.973 993.16 426.654 992.5C426.073 991.562 425.395 990.978 424.581 990.25C426.271 990.192 427.911 990.46 429.581 990.226C431.718 989.927 433.577 990.452 435.5 991.343C436.276 991.069 437.144 990.574 437.953 990.724C439.018 990.922 439.807 991.121 440.866 990.75L442.25 989.456L442.703 989.849C443.39 990.402 443.099 990.229 444 990.428C445.36 988.842 446.756 986.147 446.505 984L446.079 982.25L447.048 982.12C447.48 981.13 447.437 981.136 447.409 980.148C447.313 976.802 448.87 972.906 449.781 969.67L457.142 944.9L474.273 883.25C475.04 880.418 475.836 877.546 476.831 874.785C477.39 873.233 478.334 871.554 478.384 869.904C478.436 868.172 480.165 865.511 480.806 863.775L477.25 860.461C476.369 860.543 475.6 860.699 474.75 860.941L474.289 860.733C472.469 860.039 469.046 859.313 467.096 859.487C466.277 859.561 465.885 859.247 465.169 858.933C463.268 858.1 461.153 857.686 459.193 856.986C456.398 855.988 453.516 854.607 450.599 854.077L449.75 854.531L449.236 854.234C446.451 852.66 444.345 852.408 441.188 852.19L440.25 852.641L439.639 852.314C438.508 851.831 437.721 851.999 436.531 852.111L435.524 853.61L434.302 853.81C434.343 855.352 434.246 853.967 434.491 855.295C435.043 858.28 433.741 861.071 433.271 863.962C432.765 867.076 433.013 871.048 432.25 873.97C432.107 874.519 431.623 874.945 431.5 875.5L431.511 877.5L430.968 879.25L430.897 880.936L430.448 882.25L430.297 883.597C430.182 884.501 429.348 886.515 429.474 887.25C429.506 887.437 430.242 888.618 430.243 888.75C430.255 890.435 427.251 889.187 429.192 892.5C428.823 893.225 427.775 894.774 427.66 895.5C427.533 896.312 428.1 896.389 427.768 897.495L422.544 923.756C422.407 924.904 422.032 926.991 421.417 927.944C421.28 928.155 420.552 928.646 420.548 928.75C420.527 929.313 421.349 929.687 421.33 930.25C421.261 932.239 419.769 930.967 421.311 933.355L420.091 934.25C420.055 935.265 420.2 935.82 420.601 936.75L419.061 938.5L419.156 939.136C419.548 942.092 417.362 944.776 418.498 947.5L417.987 947.884C417.22 948.51 417.483 948.251 417.023 949.25C417.798 951.722 416.284 953.305 416.251 955.786C416.223 957.855 414.908 958.662 415.25 960.955C415.398 961.949 415.489 962.024 415 962.886C413.42 965.668 413.121 970.337 412.14 973.5C411.547 975.412 410.226 977.78 410.208 979.75C410.187 981.96 410.782 984.664 411.499 986.75L412.419 988.75C411.561 989.289 411.003 989.7 410 989.91L409.571 989.124C408.45 987.192 406.869 986.101 404.713 985.628C403.967 985.465 404.342 985.485 403.44 986L403.573 986.963C403.738 988.38 403.32 989.524 402.858 990.839L402.413 990.435C401.072 989.33 399.968 988.967 398.25 988.917L397.25 989.473L396.734 988.92C394.994 987.222 391.465 987.221 389.205 986.75C386.833 986.255 384.514 985.34 382.155 984.75L381.025 985.311L380.58 985.028C379.006 984.041 378.158 983.591 376.266 983.528C374.885 983.482 374.691 983.011 373.5 982.537L372.444 982.417C370.263 982.215 368.891 980.569 366.539 980.319C365.678 980.227 365.03 979.907 364.25 979.552L363.75 978.233C362.665 978.339 362.406 978.471 361.5 978.998L361.104 978.717C359.203 977.417 357.798 977.534 355.714 976.895C353.367 976.176 349.69 974.176 347.322 974.363L346.75 974.483L346.312 974.038C344.501 972.506 341.446 971.599 339.25 970.658L337.75 971.045L337.392 970.73C335.752 969.325 334.229 968.484 332.026 968.44L330.75 967.045L330.268 967.391C329.489 967.9 329.791 967.736 328.75 967.858C327.765 966.355 327.649 966.23 326 965.525L324.25 966.028L321.25 963.443C318 964.162 318.095 962.068 315.5 961.446C314.85 961.29 314.167 961.542 313.5 961.59C312.638 960.702 311.907 959.717 310.745 959.25L309.75 960.016L309.367 959.683C307.217 957.857 304.574 957.254 302.154 955.885C301.239 955.367 301.793 955.607 300.779 955.432C298.42 955.025 295.734 953.08 293.652 951.874C292.867 951.42 292.377 951.444 291.5 951.475L287.92 948.093L288.498 947.503L287.92 948.093C285.706 947.753 282.952 946.088 280.757 945.25L280.346 944C279.778 944.332 279.394 944.334 278.75 944.407L276.924 942.115L273.75 941.765C272.867 941.068 272.326 940.622 271.991 939.538L271.75 938.695L268.25 938.932C266.97 937.657 266.608 937.484 266.25 935.654L264.25 935.918C262.456 935.024 261.147 934.473 260.099 932.676L259.873 932.25L258.5 932.539C256.867 931.837 255.841 931.131 254.608 929.839L254.25 929.454L253 929.843C252.5 929.562 251.873 929.435 251.5 929C251.24 928.697 251.528 928.128 251.268 927.824C250.641 927.092 248.175 926.099 247.25 925.506C244.855 923.969 242.748 922.144 240.52 920.395C238.621 918.904 236.773 918.688 235.242 916.632L234.972 916.25L233.5 916.471L228.5 912.397L227.25 912.992L226.45 912.25L226.795 911.294C223.533 908.571 219.396 906.564 215.923 904.042L215.342 901.75L214.5 902.071C213.021 902.371 210.532 899.957 209.476 898.93C208.693 898.169 208.439 897.85 207.361 897.468C206.746 897.25 206.914 897.374 206.25 897.04C204.055 895.936 199.132 892.621 198.363 890.25L200.25 889.588C205.05 882.42 211.086 876.877 217.208 870.916L234.795 852.953L267.085 817.49C271.271 812.94 275.128 807.994 279.677 803.803L280.292 803.242L279.944 802.62C277.956 800.083 273.514 797.622 270.766 795.753L258.471 786.992C255.215 784.624 252.172 781.633 248.75 779.545C246.97 778.459 244.845 777.512 242.817 777.04C240.885 779.264 238.534 781.62 237.153 784.227C235.382 787.569 234.274 791.023 232.2 794.257L200.635 845.877C197.5 851.326 195.568 857.27 191.684 862.332C190.523 863.846 189.089 865.44 188.293 867.166C187.607 868.652 186.787 870.089 185.712 871.331L181.881 876.106C180.175 874.449 177.413 872.383 176.48 870.194L176.313 869.75C175.324 869.721 174.549 869.684 173.596 869.369C172.644 869.054 172.991 869.261 172.498 868.25L173.832 867.308L173.25 866.483C171.625 866.377 170.937 866.099 169.546 865.25L169.481 863.25L167 862.393C165.396 861.42 166.7 860.905 166.25 859.391C164.08 858.397 162.587 857.468 160.922 855.75L161.493 854.25C160.59 852.921 159.336 853.882 157.902 853.003L157.805 851.25C157.276 850.378 156.885 850.002 156.006 849.532C155.135 849.066 154.366 848.575 153.564 847.992L153.423 845.75C152.131 845.263 151.233 844.851 150.12 843.996L150.25 842.821C148.163 841.79 146.218 840.228 144.67 838.5L145.421 837.25C142.174 835.301 137.979 831.478 135.847 828.379C134.742 826.773 133.172 825.476 132.12 823.877C130.804 821.878 129.472 820.552 127.75 818.899L127.928 817.93C127.938 817.701 127.971 817.424 127.821 817.25C127.736 817.151 126.947 817.214 126.75 817.111C126.272 816.859 125.463 815.695 125.059 815.25C125.25 814.639 125.37 814.148 125.457 813.506C124.566 813.327 124.074 813.14 123.277 812.75C122.693 811.742 122.165 810.79 121.237 810.057L119.39 808.5L119.75 807.549C120.086 806.205 116.058 804.155 115.079 802.75L115.868 801.25C114.925 800.842 114.09 800.461 113.25 799.865L113.568 798.5C113.098 797.726 112.707 797.511 111.894 797.182C110.831 796.752 110.992 796.82 110.371 796L111.152 794.5C110.298 793.397 109.212 792.754 108.064 792C108.082 787.659 106.561 789.769 104.483 787C104.535 786.541 104.626 785.954 104.553 785.5C104.394 784.511 103.975 784.034 103.25 783.416L102.857 784.412L102.25 784.378L101.581 783L102.412 781.5L101.776 780.75L100.75 781.449L99.4939 780.25L99.6257 779.127L100.003 778.25C98.6386 777.263 97.1926 776.56 96.4985 775C96.9286 774.385 97.2676 773.978 97.3635 773.209C97.4529 772.493 96.9095 772.12 96.5 771.574L95.5 771.976C94.3779 770.846 94.531 770.866 94.5296 769.25C93.0643 768.233 92.4462 767.291 91.5735 765.75L92.3408 764.139L91.7365 764.068C90.5004 763.86 90.0696 763.489 89.3565 762.459C88.6951 761.503 88.964 761.471 89.1919 760.419L87.6973 759.798L88.2977 758.5L87.8626 757.75C86.7739 757.75 87.2217 757.891 86.4767 757.5L86.8184 756.5L86.25 755.84L84.75 756.04L84.0772 755.25L84.9207 753.75C84.1691 752.651 83.4748 751.525 82.3513 750.767C81.4941 750.19 81.6294 750.25 81.25 749.368L82.25 747.578L80.3752 746.264L79.9267 746L80.1784 744.5C79.6845 744.01 79.2289 743.59 78.6547 743.191L78.1755 742.872C78.7464 742.075 78.975 742.018 78.9894 741C77.9556 740.395 76.8523 739.89 76.2465 738.809C75.8151 738.038 76.2712 737.297 76.4787 736.5C75.7012 735.088 75.2731 735.903 74.0148 735L73.9559 732C72.6787 731.334 72.1215 731.028 71.3463 729.75C71.6323 728.833 71.75 728.339 71.75 727.356C68.9512 726.606 69.9667 726.323 69.5735 724.25C69.5323 724.033 66.9388 721.43 66.5884 721L67.2994 719.574L66.0455 718.953C65.8201 717.507 65.2999 717.265 64.2867 716.25C63.8632 714.565 63.9625 714.656 64.8253 713.124C63.0771 711.985 62.0275 710.319 61.0938 708.5L61.9652 706.5C61.0938 705.663 60.1497 705.026 59.1521 704.356C58.8113 702.796 58.9988 702.709 59.7131 701.25C58.4725 700.903 57.8513 700.71 56.971 699.75C56.5355 698.25 56.2923 698.003 56.8758 696.5L56.5196 695.864L55.018 695.874C54.9084 694.875 54.8904 695.214 54.9761 694.32L55.042 693.75C54.2585 692.055 53.5035 689.993 52.2106 688.625L51.584 688L52.0183 687.07L52.4299 686.25L50.75 684.908C50.6054 683.815 50.8334 683.865 51.4283 683C49.8155 681.803 49.045 679.752 48.1495 678L48.75 677.419L49.6483 677.05L49.5 676.489C48.5558 676.189 48.1198 675.998 47.4603 675.25L47.9099 673.75C47.4287 672.614 46.8132 672.423 45.8253 671.75C45.6875 670.655 45.6424 670.99 45.7931 670.062L45.9025 669.5C45.2096 669.05 44.6857 668.592 44.1104 668L44.7637 666.404L43.8262 665.042L44.1142 664.113L44.4432 663.25L43.25 662.591C42.9843 661.202 42.7883 660.039 41.7998 658.963L41.1112 658.25L42 657.662L42.8937 657.25L40.4988 655.25L40.6457 654.146L41.0215 653.25L39.75 652.493C39.5758 651.259 39.732 651.445 40.4148 650.5C39.87 649.659 39.3938 648.981 38.663 648.281L38.0744 647.75L38.9734 646L38.25 644.978C37.5472 644.685 37.1994 644.489 36.5844 644L37.5691 642.5L36.6468 641L37.25 639.876L36.9951 639.25C35.9381 639.673 36.5155 639.581 35.25 639.423L35.049 638.5L36.2403 637.25L35.25 635.809L35.526 634.5C34.7658 633.886 34.1601 633.401 33.6403 632.566L34.6848 632.25L34.75 631.467C34.0201 631.123 33.5487 630.815 32.9716 630.25L33.75 628.671C33.043 627.966 32.4612 627.423 32.0536 626.5L33.4589 625.5L33.418 624.561L32.1837 624.307C31.4346 623.131 31.5215 623.194 31.7999 621.814C31.1917 620.908 31.4527 621.129 30.7122 620.549L30.2431 620.205L31.6352 617.25C30.955 617.015 30.3891 616.784 29.75 616.471L29.9653 615C28.8288 612.97 29.2582 611.185 28.6453 609.061L28.4444 608.5L29.25 607.019L28.8853 606.164L27.75 606.456L27.1178 605.75L28.3951 604.75C28.218 604.081 28.0833 603.563 28.1235 602.862L28.1735 602.38C27.3387 602.115 26.91 601.915 26.1474 601.426C26.5343 600.467 27.2656 601.066 28.2817 600.355C27.5054 599.175 26.6991 598.017 26.0678 596.75L27.0382 595.579C27.8879 594.303 26.0838 594.187 25.6651 592.5L26.9094 590.5L26.5 589.839L25.3896 590.326L24.6265 589.937C24.3102 588.52 24.7501 587.75 25.3297 586.496L25.5652 586C25.2058 585.467 24.9615 585.162 24.4226 584.785L23.9786 584.5C24.0369 583.346 24.0728 582.238 24.3697 581.114L24.5613 580.5C21.5078 578.565 24.7252 578.075 23.9136 575.75L22.5 575.563L21.9908 574.75L23.1743 572.561L23.5038 572C22.5623 570.858 21.7906 569.87 21.1805 568.5C21.7695 567.896 22.0854 567.496 22.5244 566.75L20.9957 565.25L21.1313 564.147L22.75 564.217C21.9989 563.5 21.3945 562.912 20.8874 562L22.0126 560C21.1783 559.466 20.7849 559.1 20.2729 558.25L20.7101 556.75C20.3437 555.675 20.3986 555.021 20.8478 553.973L21.0714 553.5C20.2738 552.691 20.0305 552.072 19.678 551C20.7044 548.929 19.9446 548.078 19.7024 545.96C19.3685 543.04 19.302 539.845 19.1564 536.897C18.6703 527.052 19.1247 517.123 19.321 507.274C19.3939 503.614 18.9751 499.893 19.3765 496.256C19.599 494.241 18.8445 490.584 19.8132 488.885L20.2171 488.25L19.2835 487.25C19.2203 485.122 19.2538 485.131 20.6317 483.5C19.8928 482.341 19.3626 481.369 19.582 479.948C19.8315 478.332 20.08 478.337 21.3279 477.382C19.9864 475.809 20.1176 475.709 20.0826 473.75L21.8502 471.92C21.193 471.163 21.4814 471.319 20.6709 470.958L20.1462 470.75C20.8762 469.7 21.045 469.01 21.2229 467.75C20.8456 466.814 20.6419 465.997 20.4879 465L21.1538 464.25L22.4643 464.713L22.8629 464.25C21.7234 462.885 21.2867 462.548 20.9993 460.75L22.75 459.407C22.42 457.431 21.5273 456.925 21.629 454.75L23 454.545L23.5459 453.75L22.25 452.402C21.9804 450.526 22.5871 450.103 23.5344 448.5L22.3634 447C22.6642 445.488 23.3321 444.16 23.9369 442.75L23.1928 441.75C23.3512 439.616 23.8834 440.543 25.0297 439C22.6356 435.954 25.515 436.528 25.4136 434.173L24.25 434.89L23.4893 434.25L25.781 431.75L24.6384 430.38L24.75 429.472L26 428.931C26.2416 428.743 26.5683 428.552 26.6155 428.25C26.6363 428.117 25.8921 427.02 25.832 426.75C25.7098 426.2 26.1539 424.637 26.25 424.006L27.4508 423.382C27.3665 423.005 26.7263 421.004 26.7871 420.75C27.1899 419.065 28.2054 419.609 27.9126 417.297C27.7476 415.994 29.0478 416.287 29.0784 414.956C28.2103 414.847 28.2234 414.994 27.5 415.407L27.1518 414.514L28.8923 412.5L28.25 411.418C28.1191 409.98 29.1285 408.642 29.7939 407.418L29.2879 406.25C28.4319 403.918 29.7896 404.987 30.7054 403L29.6722 401.45C30.5084 399.888 30.5247 399.924 32.1706 399.25L32.3845 398.503L31.3717 397.75C31.0706 396.675 31.1346 396.646 31.5657 395.603C32.7508 395.577 32.1908 395.661 33.25 395.382L32.8072 394.75C32.8089 394.01 32.8187 393.297 32.7138 392.562L32.6382 392.123C33.5331 392.033 33.5719 392.223 34.1841 391.495C33.1278 390.485 32.8247 389.7 32.6937 388.25L34.5 388.562L35.3394 387.75C34.5605 386.522 34.2582 386.179 34.1786 384.75C35.0165 384.278 35.6389 383.893 36.2871 383.177C35.6502 382.561 34.9355 382.021 34.6358 381.161C34.4351 380.585 34.8122 380.248 35.0739 379.75L36.3354 379.784L36.8707 379L35.75 377.56L36.25 376.053C36.4704 375.209 36.5166 374.609 36.9159 373.81L37.25 373.167C37.5981 372.271 37.6077 371.92 38.2906 371.177L38.9284 370.5L38.7843 369.75L37.4541 369.25L37.75 368.407L39.6653 367.75L40.0815 366.75L38.75 365.393L39.25 364.765L40.5 365.387L41.1159 364.75L39.6511 363C40.0936 362.457 40.409 362.059 41.0317 361.709L41.4573 361.5L40.7966 360.25L41.25 359.551L42.3981 359.828L42.938 359L42.1034 357.902C41.801 355.617 43.5068 356.354 43.8347 354.911C44.0371 354.02 43.5175 353.49 43.9663 352.25L44.75 351.909L45.5459 353.457L45.1212 354.446L45.5459 353.457L45.9631 351.75L44.75 350.949C44.4583 349.795 44.4172 349.81 44.9408 348.75L46.25 348.415L46.729 347.383L45.25 345.913C45.554 344.785 47.6211 344.889 48.0333 343.25C48.2019 342.579 47.6218 341.41 47.8022 340.75C48.0103 339.988 48.9153 338.831 49.4042 338.192L49.9399 337.5C49.846 336.244 49.6653 335.389 50.1568 334.195L51.25 334.96L52.0187 334.25L51.5811 332.041L52.75 331.921L53.6097 328.75C52.9494 328.058 52.5373 327.614 52.0993 326.75C53.0086 326.615 52.7115 326.567 53.503 326.747L54 326.878C54.7723 326.045 55.1319 325.29 55.5782 324.25C55.0339 323.58 54.6756 323.06 54.3726 322.25C55.445 321.203 56.0431 320.501 57.587 320.297L58.0501 320.25L58.3838 319.5L57.25 318.468C57.0622 317.001 56.8972 316.939 57.7321 315.75C59.0607 315.569 59.6364 315.455 60.6354 314.54L60.5 314C59.6128 314.331 60.0517 314.336 59.1831 314C59.511 312.678 59.5099 311.975 60.5 311.011L61.75 311.615L62.331 310.584L61.1162 309.75C61.5245 308.482 61.8773 307.186 62.5 306.003L63.4952 306.11L63.8798 305.75L62.9649 304.082L64.2404 303.633L64.6165 301.75C65.4989 301.031 66.1488 300.642 66.4365 299.5L65.4538 298.5L65.5563 297.75L67 297.742C68.2089 296.347 66.4894 296.293 66.75 294.476L68.1002 295.25L68.6054 294.75L67.5382 293.25L68.1967 292.25L69.25 292.065C69.8768 290.736 69.7575 290.479 69.5432 289C70.2503 288.21 70.0302 288.404 70.6784 287.828L71.0589 287.5L70.6999 286.159L71.989 285.48L72.8454 286.362L71.989 285.48C71.8 284.493 71.6696 283.674 71.75 282.669C72.6781 282.942 72.4298 282.774 73.0995 283.264L73.5 283.58C73.866 282.326 73.7194 281.048 73.6943 279.75C74.5615 279.15 75.2443 278.504 75.9795 277.75C75.7897 277.031 75.6081 276.435 75.2613 275.769L74.9723 275.25L77.25 275.008L77.9712 274L77.1695 272.408C77.7311 271.06 78.5637 271.807 79.8296 271C79.5819 269.935 79.3407 268.928 79.25 267.836C80.1151 267.652 80.5025 267.531 81.25 267.141C81.1027 265.993 81.2098 265.348 81.5679 264.25L83.5922 263.75C83.1162 262.376 82.8129 262.031 83.25 260.608L84.5 260.681C85.6426 259.402 84.6638 258.615 85.75 257.27L87 257.566C88.1854 256.133 87.9176 255.067 88.5353 253.5C88.8122 252.798 89.2029 252.535 89.8581 252.216L90.3769 252L89.8147 250.5C90.3164 249.729 90.6437 249.032 91.484 248.601C92.5195 248.069 91.4747 248.828 92.7448 247.75L92.0673 246.5C92.6329 245.37 93.4833 244.937 94.5146 244.287L94.9779 244L94.9482 242.25C95.5847 241.012 96.7061 240.227 97.75 239.344L97.2494 237.96L97.0563 237.5L97.6198 236.75L99.25 237.067L100.466 235.5L99.658 233.5C100.348 232.669 101.077 232.233 101.992 231.695L102.371 231.474L102.071 229.5C102.992 228.115 103.137 229.177 104.716 228.75C104.392 227.886 104.225 227.87 104.5 226.942L105.962 226.91C105.904 225.886 105.988 226.238 105.715 225.337L105.523 224.75L107.25 223.334L108 223.934L108.665 223.75L107.733 222.84C108.332 221.293 108.406 220.856 109.75 219.804C110.162 220.8 109.855 220.329 110.75 221.165L111.437 220.25L110.37 219.25C110.656 218.738 111.092 217.621 111.487 217.25C111.597 217.147 112.712 216.543 112.75 216.481C112.976 216.116 113.299 214.121 113.5 213.584C114.491 213.702 114.874 213.687 115.75 213.194L116.1 210.75C117.819 209.652 119.029 207.528 120.444 206.022ZM428.026 230.021L428.346 232.098L429.488 233.25C428.568 235.398 430.482 235.465 428.814 237.75L430.428 239.5C430.34 240.514 430.12 240.931 429.524 241.75L430.785 243.5C430.652 244.083 430.276 244.662 430.386 245.25C430.435 245.512 431.431 246.799 431.438 247C431.462 247.659 430.823 248.167 430.516 248.75L431.782 250.345C430.714 252.439 432.076 252.991 431.106 255L431.465 255.562L432.374 257.25L431.668 258.75C432.949 261.511 431.789 264.359 433.503 266.75L432.531 268.5L432.723 269.002C433.365 270.741 433.635 272.226 433.75 274.07C435.359 275.516 436.917 275.283 438.956 275.622L439.933 275.834L440.558 275.667C441.512 275.428 441.843 275.716 442.756 275.75L444 275.551L458.873 275.246C462.259 274.943 467.024 275.144 470.348 275.806C472.21 276.177 473.263 275.507 475.25 276.103C476.651 276.523 477.709 275.987 479 276.153C480.055 276.289 480.803 276.569 481.894 276.544C484.333 276.486 486.84 277.003 489.25 277.363C490.131 276.232 489.809 274.362 490.734 273.764C491.327 273.381 491.111 273.557 491.5 273.191L490.604 272.5C490.614 270.748 490.798 268.88 490.75 267.152L490.602 266.503C490.455 265.754 490.409 264.712 490.75 263.999L491.341 263.2L490.423 262.5C490.435 259.031 490.21 255.431 490.408 251.992C490.546 249.595 490.148 247.229 490.338 244.779C490.456 243.267 490.134 241.591 490.801 240.198L490.569 239.856C489.961 238.604 490.35 236.289 490.447 234.891C490.506 234.03 490.412 233.345 490.376 232.5L490.386 231.763C490.387 231.085 490.297 230.638 490.099 230L490.329 229.391C490.628 228.237 490.27 227.344 489.933 226.25L490.75 224.217C490.191 223.112 489.822 222.779 490.25 221.544L490.775 220.535L490.641 219.736L490.241 213.75C490.1 212.698 490.179 212.254 490.394 211.25C490.649 210.054 490.486 209.426 490.242 208.251C490.073 207.434 490.308 206.804 490.362 205.998C490.487 204.12 490.159 202.321 490.513 200.437C490.75 199.172 490.483 195.033 490.049 193.75C491.335 190.963 489.792 188.475 490.402 185.592C490.574 184.78 490.316 184.292 490.131 183.521C489.844 182.331 490.088 181.354 490.525 180.25C490.017 178.92 490.112 178.667 490.387 177.25L491.301 176.161C489.981 174.366 489.824 172.336 490.603 170.103L491.082 169.25C489.802 167.618 490.049 166.783 489.96 164.75L490.873 163.5L490.475 162.625C489.976 161.476 490.037 160.725 490.155 159.502L491.42 158C490.555 157.131 491.041 157.452 489.987 157L490.114 156.443C490.635 154.031 490.495 152.143 489.99 149.75C491.038 147.44 489.928 145.689 491.015 143.5C489.91 141.505 490.624 139.282 490.335 137L490.615 136.499C491.009 135.722 490.893 136.031 490.915 135.085C490.119 133.828 490.077 132.745 490.475 131.25C490.605 130.762 490.728 130.625 490.975 130.25L490.798 129.694C490.324 128.18 489.772 127.018 490.574 125.516L490.889 125C490.71 124.543 490.104 123.432 490.103 123C490.103 122.103 490.863 120.75 490.704 119.883C490.353 117.966 490.04 117.726 490.416 115.711C490.702 114.179 490.131 112.716 490.424 111C490.821 108.669 489.528 106.414 490.595 104.25L490.481 103.822C490.08 102.24 490.019 101.197 490.439 99.5916C490.649 98.7879 490.348 98.3118 490.194 97.548C489.946 96.3177 490.381 94.6424 490.264 93.25L490.313 91.75L489.462 90.5L489.785 89.9375C490.102 89.3627 490.311 88.8681 490.511 88.25L490.038 87.4688C489.522 86.5882 489.446 86.0288 489.489 85L490.226 83.75L489.247 81.761L489.851 81.2381C490.499 80.643 490.777 80.2648 491.16 79.5C490.68 78.5315 490.231 77.8071 489.51 77L489.732 76.5517C490.551 74.7632 489.234 74.0036 489.539 73C489.821 72.0741 490.748 72.1286 490.365 71.0462C489.903 69.7445 489.589 68.8649 489.919 67.4896L491.015 66.5C490.698 65.4714 489.713 63.6495 490.036 62.7221C490.313 61.9271 490.433 61.4104 490.236 60.5842C490.031 59.7303 490.294 59.0756 490.506 58.25C489.872 57.7783 489.763 57.501 488.951 57.5127C487.577 57.5324 486.554 57.5359 485.25 57.0131L484.891 57.75L484.622 58.25L483.841 57.8774C480.972 56.6358 473.533 57.956 470.322 58.3107L429.25 64.8591C425.07 65.7218 420.816 67.1788 416.611 67.75L415.75 70.1388L414.2 70.25C414.348 72.7825 416.178 75.2474 415.75 77.5033L414.636 78.5L414.923 79.2858C415.915 82.0486 414.348 83.7192 416.228 86.25C415.697 86.9737 415.147 87.6065 414.521 88.25C415.209 88.9926 415.879 89.6279 416.678 90.25C415.995 92.1614 415.451 93.6811 415.434 95.75L416.636 97.5C416.347 98.5367 415.893 98.99 415.15 99.75L416.432 101.5C415.837 102.445 416.252 102.069 415.124 102.555C415.125 103.739 415.656 104.406 416.25 105.388L415.25 106.767L416.536 108C416.187 109.095 416.097 109.034 415.294 109.75L415.673 110.257C416.254 111.062 416.045 110.749 416.53 111.75L415.75 112.755L416.229 113.284C416.912 114.076 416.68 113.741 417.084 114.75L415.741 116.426C416.267 117.172 416.813 117.831 417.434 118.5C417.123 119.452 416.692 119.991 416.048 120.75L416.409 121.591C416.648 122.337 416.466 123.077 416.25 123.794L417.578 124.75C417.315 125.497 417.013 126.083 416.587 126.75C417.313 127.91 417.926 128.292 417.686 129.687C417.55 130.473 417.499 130.988 417.75 131.764L416.826 132.75L417.178 133.672C417.475 134.462 417.661 135.151 417.75 135.996L418.485 136.75L417.95 137.438C417.46 138.091 417.195 138.506 416.927 139.25C417.488 140.041 418.038 140.664 418.75 141.322L417.504 143.25C417.825 144.351 418.199 144.894 418.957 145.75L418.591 146.354C418.053 147.433 418.16 148.143 418.205 149.312L419.093 150.5L418.161 153C418.374 154.512 418.447 155.096 419.549 156.25C418.697 157.822 418.549 157.786 418.961 159.5C419.779 160.23 420.254 160.32 420.414 161.441L419.28 162.966C419.464 163.99 419.92 164.469 420.579 165.25C420.314 166.179 420.03 166.913 419.547 167.75L419.871 168.309C420.23 168.958 420.46 169.551 420.692 170.25L419.46 171.5C420.046 172.397 420.485 172.663 421.358 173.25L420.139 175.5L421.75 177.164C421.61 178.266 421.182 179.023 420.685 180C421.507 180.667 421.047 180.326 422.082 181L421.287 182.5C421.792 183.728 422.367 184.93 422.573 186.25L421.592 187.5L422.067 188.276C422.585 189.149 422.722 189.813 422.805 190.83L421.936 192.25L422.415 192.891C423.297 194.197 423.429 195.467 423.527 197L422.897 198.25L423.211 198.719C423.678 199.454 424.029 200.213 424.395 201L424.126 201.719C423.721 202.912 424.059 204.062 424.321 205.25L425.579 206.75L425.305 207.203L424.623 208.5L425.038 209.391C425.832 211.142 425.999 213.144 425.974 215.047C425.962 216.011 426.259 216.162 426.59 217C427.184 218.499 426.484 219.346 426.75 220.382C426.917 221.031 427.545 221.461 427.943 222L426.922 223.5L427.299 224.196L428.336 226.5L427.67 227.852L428.861 229.25L428.026 230.021L427.623 229.52L428.026 230.021ZM706.564 474.007C707.467 471.242 706.826 468.81 707.063 466C706.082 464.091 707.261 464.162 706.945 462.75C706.74 461.834 705.415 461.67 705.715 460.517C705.87 459.923 705.953 459.358 706.026 458.75C704.837 457.128 703.318 455.457 702.635 453.567L703.579 453.293L704.25 453.071L703.753 452.677C701.367 450.749 699.89 448.43 697.75 446.318L697.528 447.25L697.819 447.709C698.666 449.079 699.053 450.035 699.351 451.6C699.488 452.323 699.721 452.935 699.969 453.625C701.518 457.936 701.618 462.55 702.956 466.906L704.794 474.736L705.949 475.06C705.462 476.565 705.921 478.667 706.079 480.25C707.141 480.335 706.891 479.411 707.817 478.637C708.317 484.716 707.697 491.118 707.582 497.228C707.203 517.376 707.056 537.653 701.775 557.252C701.453 558.449 701.499 559.691 701.151 560.858C700.639 562.576 700.37 564.522 699.495 566.094C698.971 567.034 699.161 567.082 699.324 568.11C696.294 575.811 695.561 584.358 692.43 592.146C687.359 604.76 680.302 615.897 673.25 627.443C668.633 635.002 664.88 643.089 659.965 650.5C656.067 656.377 650.906 661.668 646.115 666.843C640.799 672.585 635.31 678.658 629.534 683.93C624.786 688.263 618.672 690.85 613.765 695.11C612.886 695.874 612.623 696.18 611.5 696.54C611.299 695.765 611.467 696.118 611 695.48C609.886 696.529 608.997 697.9 607.874 698.865C604.891 701.428 600.731 702.838 597.49 705.109C591.7 709.166 585.901 713.372 579.793 716.954C576.375 718.959 572.703 720.425 569.213 722.295C562.811 725.724 555.806 729.445 548.841 731.565C543.79 733.102 538.466 733.875 533.28 734.847L510.1 738.673C503.043 739.495 495.033 741.139 487.975 740.586C486.858 740.498 486.646 740.94 485.75 741.56L484.25 740.501C481.664 741.629 478.99 741.349 476.221 741.484L460.013 742.063C457.957 742.125 455.123 742.742 453.191 742.381C450.864 741.945 448.369 742.223 446 742.176C443.904 742.134 441.377 741.663 439.336 742.121L438.794 742.291C437.047 741.248 434.89 741.498 432.903 741.452C429.171 741.367 425.408 741.499 421.766 740.568C420.857 740.335 419.884 740.906 419 741.214C417.451 740.137 410.091 739.576 408.162 739.859L407.5 739.975L406.369 739.149C404.789 738.221 404.678 738.382 403 738.917C401.556 738.133 399.853 737.839 398.25 737.526L383.319 733.75C366.485 730.753 350.125 723.835 333.75 718.993C327.013 717.001 320.364 713.205 314.119 710.034C302.846 704.309 291.898 698.182 281.5 690.955C276.308 687.346 271.406 683.243 266.448 679.319C261.341 675.277 255.936 671.242 251.148 666.842C243.614 659.919 236.308 651.531 230.212 643.286C228.395 640.827 226.253 638.634 224.804 635.926C220.725 628.3 214.906 621.546 210.655 613.879C208.502 609.996 206.797 605.902 204.831 601.933C203.857 599.967 202.256 598.354 201.426 596.312C198.887 590.07 196.957 583.406 194.187 577.277C193.883 576.604 193.563 576.109 193.534 575.346C193.48 573.927 193.202 571.931 192.175 570.868L191.639 570.361C191.767 569.348 191.675 569.685 191.949 568.81C192.463 567.168 190.213 564.691 190.519 562.608C190.667 561.609 190.752 561.95 190.446 561.068C189.969 559.693 188.972 556.899 189.029 555.5C189.064 554.639 189.693 555.063 189.461 553.75L188.25 553.339C187.909 552.484 187.807 551.939 187.759 551.004L187.216 545.892C187.129 544.276 186.631 542.94 186.076 541.438L185.817 540.75C186.388 538.948 185.813 537.397 185.64 535.581C185.388 532.932 185.297 530.171 185.354 527.51L185.392 526C185.281 523.481 185.088 520.77 185.18 518.25C185.226 516.965 185.614 515.947 185.415 514.641C185.006 511.962 184.978 503.579 186.352 501.498C185.456 499.562 186.029 496.94 186.399 494.909C187.015 491.529 187.499 487.917 188.642 484.671C189.84 481.268 191.896 477.731 192.762 474.266C193.402 471.705 194.522 469.767 195.461 467.329C196.883 463.636 198.097 459.891 199.842 456.331L200.132 455.75C199.837 453.697 201.394 450.572 202.07 448.571C205.593 438.141 209.475 426.665 215 417.118C218.793 410.565 222.836 403.843 227.568 397.924C231.292 393.266 235.639 389.06 239.679 384.669C249.322 374.188 260.073 363.613 271.528 355.121C277.429 350.747 284.159 347.357 290.514 343.683C300.17 338.102 310.092 332.419 320.249 327.806C339.177 319.211 359.099 313.064 379.241 308.038C389.895 305.38 400.595 303.68 411.464 302.214C415.145 301.718 419.656 302.029 423.13 301.02C423.818 300.82 424.051 300.646 424.75 300.732C427.453 301.064 430.076 300.63 432.834 300.49C439.035 300.176 445.567 299.5 451.766 299.811C454.65 299.956 458.334 299.448 461.093 299.914C463.091 300.251 466.687 300.576 468.601 299.968L469.098 299.75C470.813 300.991 474.538 300.311 476.67 300.516C478.631 300.705 480.755 301.426 482.703 301.172L483.25 301.079C484.906 301.258 486.16 301.875 487.913 301.582L488.75 301.425C490.916 302.821 495.34 302.393 497.952 302.664C498.927 302.765 499.167 302.927 500.137 302.591L500.75 302.338L503.25 303.479L504.75 302.875C506.817 303.411 510.315 304.462 512.35 303.757L513 303.495L514.082 304.391C516.266 304.524 519.031 304.664 520.984 305.666L521.75 306.086L522.75 305.691C524.29 306.006 525.78 306.238 527.084 307.167C528.275 308.016 529.483 308.583 530.811 309.188C529.734 307.688 527.903 305.712 527.697 303.882L527.609 303C526.735 300.034 523.657 296.875 520.946 295.669C512.496 291.91 502.897 290.716 493.704 289.941C489.425 289.581 485.144 289.692 480.914 288.888C479.726 288.662 479.851 289.454 478.83 289.39L465.172 289.069L434.25 288.644C428.237 288.742 422.272 289.512 416.294 290.036C408.347 290.733 400.464 291.262 392.614 292.809L369.145 298.297C367.431 298.748 364.864 300.164 363.36 300.339C361.059 300.606 358.57 301.595 356.336 302.263L338.895 308.386C336.344 309.393 333.116 311.123 330.426 311.457C328.496 311.696 326.599 313.315 324.97 314.362L324.36 314.305C322.474 314.325 320.837 315.891 319.477 317.039L319 317.446C318.369 317.364 317.877 317.274 317.25 317.452C315.289 318.01 313.203 319.236 311.351 320.111C304.625 323.288 298.853 327.242 292.415 330.816C285.532 334.637 277.776 337.064 271 340.944C264.612 344.602 258.858 349.12 253 353.538C236.361 366.085 221.289 380.138 209.964 397.757C196.189 419.19 184.899 444.825 180.487 469.989C180.147 471.927 178.841 474.933 179.372 476.814L179.595 477.5L178.604 478.75C178.638 480.537 178.808 482.381 178.102 484.06C177.779 484.83 177.62 485.127 177.564 486.013C177.178 492.025 175.758 497.779 175.109 503.758C174.032 513.656 174.146 523.185 174.418 533.079C174.496 535.909 174.046 539.4 174.793 542.084C175.395 544.249 175.184 547.143 176.214 549.069L176.61 549.75L176.039 551.25C177.737 554.622 176.555 558.378 178.243 562.089L179.677 565.25L180.004 564.25C178.947 562.135 179.364 560.76 179.75 558.524L180.435 558.75L179.885 560.25C180.217 560.9 180.263 560.926 180.491 561.75C180.992 563.567 181.262 566.154 180.222 567.645C180.667 568.013 181.232 568.273 181.556 568.75C182.09 569.534 182.456 572.551 182.738 573.642L187.729 591.619C188.429 593.779 189.015 596.39 190.174 598.354C191.475 600.559 193.361 602.389 194.713 604.6C196.462 607.458 197.812 610.586 199.489 613.499C202.189 618.19 205.227 622.687 208.314 627.131C212.24 632.782 217.033 637.665 221.46 642.906C229.17 652.033 236.8 661.509 245.153 670.064C257.724 682.939 272.089 695.039 287.25 704.762C296.164 710.479 305.513 715.065 315.069 719.548C324.608 724.023 334.119 728.31 344 731.907C352.925 735.156 362.853 737.142 372.086 739.363L385.064 742.89C387.23 743.539 390.039 744.927 392.29 744.931L393 744.928C399.982 746.509 406.88 748.215 414 749.292C416.795 749.715 419.556 750.512 422.401 750.424C423.295 750.396 423.949 750.363 424.812 750.64C426.873 751.303 427.628 751.619 429.75 751.044C431.298 751.548 435.184 752.17 436.693 751.746L437.25 751.506L437.675 751.827C438.894 752.55 440.551 752.639 441.897 752.27L442.75 752.016L443.98 752.75C445.345 752.582 447.181 752.158 448.484 752.621L449.057 752.884C450.749 753.514 451.635 752.637 453.233 752.524C455.334 752.376 456.221 753.482 458.25 752.44C459.297 752.93 459.922 752.671 461 752.824C462.619 753.054 462.961 753.289 464.569 752.78L465 752.636L466.25 753.547C467.95 752.838 469.397 753.12 471.141 752.784L472 752.612L473.25 753.59L474.173 752.662C475.989 752.503 477.095 752.187 478.75 753.084C480.862 752.086 481.181 752.728 483.25 752.669C484.678 752.629 485.871 751.85 487.312 752.373L488 752.655C490.125 751.578 491.988 752.478 494.047 751.685L494.75 751.393C496.463 752.066 499.555 751.569 501.269 750.947L502.051 750.642C504.58 751.47 506.951 750.508 509.454 750.122L523.791 747.364C524.892 747.103 525.476 747.501 526.568 747.161L539.311 743.718L552.75 739.47C554.361 738.95 555.949 737.982 557.663 738.001C558.544 738.011 558.793 737.992 559.616 737.737C567.786 735.199 575.523 732.93 583.312 729.277C593.605 724.451 604.225 717.882 613.073 710.708C616.313 708.081 619.152 705.062 622.32 702.366C627.892 697.625 633.974 693.607 639.326 688.557C641.771 686.25 643.761 683.329 646.093 680.883C650.67 676.083 655.587 671.587 659.668 666.331C664.488 660.122 668.615 653.167 672.624 646.413C682.096 630.456 690.238 613.618 698.45 596.984C702.247 589.293 707.428 582.394 711.345 574.755C714.765 568.085 716.738 560.941 719.461 554C720.682 550.886 720.792 547.266 721.683 544C721.899 543.209 721.575 543.03 721.203 542.329L722.585 540.75L722.131 539L723.25 537.275C722.529 536.079 722.546 535.108 722.407 533.75L723.41 532.583C724.203 531.776 723.081 530.498 723.214 529.5C723.288 528.946 723.615 528.456 723.815 527.935L722.831 527C722.745 525.229 722.368 522.919 722.815 521.214L722.984 520.75C721.884 518.879 722.808 515.503 722.503 513.31C722.218 511.262 722.657 509.559 722.75 507.511C722.882 504.557 722.782 501.497 722.559 498.551C721.828 488.9 719.331 479.02 717.556 469.5L717.279 467.75L717.496 466.25C717.492 464.04 717.164 462.923 715.578 461.5C715.643 460.508 715.534 460.818 715.876 460.007L716.11 459.5C714.934 453.658 710.883 447.262 707.805 442.234C706.549 440.184 705.566 437.915 704.138 435.982L703.58 435.25L703.632 434.609C703.675 432.231 701.61 429.256 700.603 427.142C699.418 424.656 698.833 421.878 696.864 419.873C695.453 418.437 695.558 417.368 694.83 415.641C693.465 412.398 691.254 407.468 688.865 404.922C687.931 403.927 686.782 402.769 686.65 401.34C686.554 400.308 686.807 401.159 686.35 399.922L686.08 399.25L686.75 397.892L686.159 397.658L685.25 398.051C683.796 396.854 684.264 395.527 683.572 394C682.481 391.59 678.269 389.948 677.75 386.845C677.121 383.086 673.679 379.792 671.25 376.835L671.433 375.5C664.081 368.226 655.874 361.988 647.617 355.787C619.366 334.571 587.494 316.469 554.168 304.588C551.516 303.643 548.73 303.205 546.065 302.335C541.491 300.841 537.124 298.356 532.22 297.704L531.5 297.616C529.958 297.219 529.124 296.899 527.5 296.822C526.177 298.679 530.187 300.486 530.871 302.044C531.134 302.643 530.972 303.348 531.022 304L535.834 307.178C543.038 311.955 553.848 314.965 562.1 317.387C565.073 318.259 568.376 318.819 571.185 320.116L587.5 326.989C602.284 333.84 616.35 341.584 629.841 350.673C636.803 355.363 643.587 359.844 649.982 365.321C654.131 368.875 657.425 372.673 661.157 376.616C666.503 382.263 671.665 387.737 676.098 394.173C678.058 397.02 679.541 400.16 681.374 403.083C683.308 406.167 685.63 409 687.236 412.283C690.538 419.028 692.817 425.919 694.737 433.147C695.473 435.915 696.85 438.78 697.036 441.642C697.101 442.651 697.204 443.175 697.75 444.076L699.5 444.116C701.808 445.38 702.676 448.305 704.132 450.385C705.345 452.119 706.775 453.434 707.459 455.508C708.427 458.445 709.839 460.697 709.105 463.75C709.597 464.698 709.865 465.449 710.058 466.5L709.114 467.75C709.812 470.689 709.81 472.986 709.405 475.986L708.75 476.272L707.884 473.75L706.564 474.007ZM223.441 703.497C227.437 711.047 232.17 717.68 236.644 724.889L243.777 737.252C248.751 745.177 254.522 753.064 260.88 759.951C263.791 763.105 267.152 765.703 270.324 768.573C289.085 785.55 311.937 800.25 335.763 809.026C337.878 809.804 342.272 812.223 344.364 812.282C345.746 812.321 347.519 813.388 348.882 813.862L359.76 817.132L373.918 820.745C379.411 822.216 384.953 823.967 390.518 825.115L417.889 830.09C420.564 830.449 425.982 829.853 428.165 830.957C430.088 831.93 432.325 830.638 434.288 831.282C434.982 831.51 434.553 831.469 435.406 831.403C442.981 830.815 451.343 831.355 459 831.392C460.614 831.4 462.558 831.802 464.101 831.292L464.75 831.053C465.811 831.413 466.298 831.574 467.422 831.334C471.095 830.549 475.05 831.056 478.75 830.503C480.218 830.284 481.205 830.729 482.703 830.155C483.956 829.675 484.701 830.163 485.986 829.967C490.663 829.255 496.152 829.081 500.652 827.77C504.902 826.532 509.375 825.926 513.704 824.941C517.011 824.19 520.245 822.977 523.5 822.514C525.66 822.207 528.273 820.93 530.411 820.301C546.849 815.464 563.138 809.612 578.5 801.968C592.383 795.059 604.853 786.584 617.16 777.263C629.061 768.249 640.774 758.255 650.438 746.821C669.994 723.682 682.034 694.207 691.581 665.765L694.723 655L693.483 652.999L695.081 652.595L695.339 652.095C696.087 650.317 696.197 648.83 695.413 647.123L694.167 647.649C693.48 649.701 692.637 650.905 693.483 652.999C692.194 653.509 691.782 654.533 691.149 655.75C689.772 658.396 688.897 661.324 687.523 664C682.344 674.083 676.047 684.056 669.437 693.277C661.971 703.693 652.769 713.398 643.481 722.207C634.673 730.561 625.647 738.411 615.707 745.41C594.631 760.251 569.576 771.907 545 779.541C537.449 781.887 529.543 784.928 521.621 785.717C518.199 786.059 514.95 787.039 511.559 787.67L494.515 790.126C491.623 790.467 488.254 791.143 485.36 790.792C480.16 790.162 474.559 790.98 469.312 790.522C467.098 790.328 464.936 790.838 462.706 790.914L448.75 790.952L447.75 789.854C445.57 791.395 434.782 790.404 431.781 790.301C424.55 790.054 417.13 788.834 409.915 788.079C385.029 785.475 361.4 780.828 337.75 772.583C333.344 771.047 328.8 769.728 324.5 767.927C316.017 764.376 308.102 759.934 300.039 755.574C295.857 753.313 291.449 751.423 287.347 749.016C274.165 741.28 261.358 730.483 250.537 719.788C242.315 711.662 234.378 702.445 227.26 693.321C221.594 686.058 216.717 678.779 210.388 672.029C210.827 674.458 211.567 676.685 212.842 678.814C214.987 682.398 215.999 686.28 217.407 690.188C219.11 694.911 220.966 699.131 223.441 703.497ZM414.255 75.75L415.065 75.75L414.255 75.75ZM553.067 115.75C552.325 116.643 551.491 117.188 551.75 118.46L552.25 119.793L551.631 120.537C550.892 121.454 550.709 122.116 550.478 123.25L551.616 125.25C551.275 125.956 550.907 126.594 550.477 127.25C551.544 127.852 550.955 127.668 552.26 127.75L552.25 128.496L550.661 130.035C551.081 130.801 551.513 131.362 552.109 132C551.59 132.896 550.954 133.524 550.223 134.25C550.68 135.17 551.252 135.931 551.869 136.75C551.701 138.394 551.424 138.827 550.369 140L550.877 140.562C551.384 141.151 551.646 141.555 551.949 142.25C551.447 143.42 550.691 144.283 549.888 145.25C550.418 146.244 551.083 146.931 551.844 147.75C551.503 148.686 551.12 149.244 550.475 150C550.791 151.061 551.325 151.781 551.861 152.723C552.273 153.444 552.128 153.23 552.219 154.25L551.647 154.615C550.803 155.18 551.113 154.936 550.405 155.75L550.676 156.177C551.303 157.176 551.635 157.635 551.826 158.834L549.979 160.25C550.406 161.238 550.814 161.707 551.518 162.5C551.26 164.295 551.2 164.418 549.969 165.75L550.31 166.062C550.778 166.51 551.148 166.986 551.539 167.5C551.237 169.16 551.276 169.486 550.069 170.75L550.481 171.31C550.939 171.965 551.193 172.512 551.471 173.25C551.092 174.155 550.708 174.755 550.071 175.5C550.633 176.375 551.306 176.906 551.061 177.97C550.854 178.869 550.6 179.281 550.064 180C550.617 181.02 551.315 181.771 550.899 182.986C550.791 183.302 550.447 183.727 550.243 184C550.336 184.583 550.57 185.161 550.521 185.75C550.507 185.92 550.004 186.623 550.015 186.75C550.042 187.044 551.391 187.885 551.516 188.25C551.623 188.56 551.302 189.943 551.25 190.348L549.585 191.75C550.025 192.766 550.624 193.271 551.44 194C550.965 194.973 550.809 195.118 549.993 195.75L551.294 197.49L550.189 198.922L551.492 200.5C551.33 201.196 551.091 202.876 550.75 203.467C550.64 203.658 549.625 204.363 549.583 204.5C549.558 204.582 550.137 205.631 550.25 205.804L551.551 207.25C550.927 208.139 550.505 208.415 549.617 209.002C549.784 210.175 550.388 211.017 550.999 212C550.824 213.357 550.54 214.272 549.992 215.5L550.204 215.968C550.917 217.6 551.057 218.484 550.887 220.25L549.792 221.447L549.935 222.019C550.228 223.231 550.59 224.199 550.157 225.421L550.846 226.5C550.507 227.787 550.281 228.656 549.48 229.75L550.48 231C550.269 232.639 550.015 234.16 549.557 235.75L550.791 237.142C550.504 237.727 549.708 238.911 549.632 239.5C549.283 242.177 551.329 242.722 549.435 245.5L549.653 246.031L550.48 248.25L549.514 249.5C549.759 250.654 549.924 251.737 550.567 252.75L549.848 256L550.82 257.5L550.469 257.964C549.83 258.941 549.813 264.13 550.152 265.341L550.375 266.035C550.689 267.832 549.695 270.42 549.918 272.578C550.023 273.599 549.891 274.525 549.786 275.535C549.619 277.139 549.536 278.518 549.766 280.121C549.909 281.114 549.933 281.342 549.647 282.32C549.02 284.464 550.32 286.318 549.391 288.399L549.064 289.25L549.484 289.881C550.532 291.614 549.58 293.583 550.136 295.25C550.352 295.896 551.761 297.223 552.25 297.817L553.544 297.275L554.25 297.67C557.136 299.956 560.354 300.111 563.802 300.797C565.485 297.445 565.397 293.287 565.74 289.594C566.062 286.116 566.649 282.619 566.668 279.126C567.169 278.392 567.43 278.277 567.422 277.367C567.375 271.674 568.627 265.805 569.41 260.169L572.5 236.25C573.017 232.342 572.844 224.199 575 221.25C573.714 218.262 576.407 210.447 576.46 206.818C576.501 203.985 577.257 201.385 577.457 198.615C577.557 197.24 578.167 194.486 577.962 193.25C577.932 193.069 577.478 192.339 577.497 192.25C577.726 191.155 578.429 191.668 578.408 190.06L579.19 181.869C579.295 179.956 579.164 176.996 580.367 175.5C579.695 174.185 579.598 174.025 579.75 172.57L580.895 171.25L580.036 169.75L581.082 167.25L580.171 165.5C580.985 164.35 581.936 163.485 581.694 161.95L581.075 160.25L581.463 159.518C582.724 156.925 580.999 153.956 582.54 151.25C582.489 150.794 582.153 149.255 582.277 148.907C582.352 148.695 583.339 147.365 583.347 147.25C583.455 145.79 581.687 145.811 583.178 143.686L583.53 143.25L583.457 142.641C583.23 140.51 583.412 139.035 584.046 137C583.842 136.111 583.615 135.522 583.127 134.75C583.516 133.752 583.86 133.399 584.706 132.75L584.596 132.149C584.235 130.091 584.06 128.928 585.326 127.147L585.174 126.624C584.784 124.521 585.695 121.739 585.73 119.517C583.91 118.756 582.191 118.006 580.5 116.986L579.978 117.151C579.035 117.413 578.598 117.472 577.733 117.03C576.122 116.208 572.295 116.525 570.5 116.874L569.148 116.193L567.75 117.468C567.214 116.451 567.404 117.019 567.25 115.743L564.75 116.643L563 115.633C562.46 115.831 560.991 116.577 560.5 116.552C559.97 116.525 559.53 116.046 559 116.018C558.319 115.981 556.915 116.681 556.25 116.959C555.614 116.426 555.44 116.208 555 115.451C554.186 115.442 553.857 115.464 553.067 115.75ZM337.323 116.648C334.269 117.213 331 117.676 328.074 118.734C324.416 120.057 320.963 122.278 317.5 124.05C309.646 128.068 300.108 131.246 294.961 138.81C293.592 140.822 292.413 143.144 291.849 145.52C294.621 156.845 301.914 166.963 307.383 177.177L337.25 231.534C339.872 236.098 343.06 240.303 345.838 244.769L355.87 261.875L361.269 271.718C362.064 273.149 362.868 274.97 364.111 276.069C365.35 277.164 366.873 277.43 368.442 277.661C369.273 277.783 369.976 278.087 370.75 278.401C372.294 278.14 374.366 278.024 375.805 277.436C376.788 277.034 377.38 276.149 378.454 275.75L378.337 275.086C378.104 273.704 377.79 272.543 378.25 271.176C376.807 269.902 375.141 268.67 374.151 267L375.072 265.5C374.606 264.735 374.247 264.45 373.477 264C373.16 262.545 373.636 262.393 373.633 261.25C373.632 260.745 372.578 259.794 372.517 259.25C372.402 258.223 372.959 257.749 372.401 256.763C371.552 255.26 371.527 254.693 371.25 253.05L368.552 244.25L368.709 243.839C368.959 242.705 368.216 240.933 367.901 239.794C366.755 235.646 364.34 229.957 364.268 225.774C364.207 222.196 361.826 216.872 360.886 213.25C359.678 208.592 359.247 202.101 356.788 197.991L357.499 196.75L356.072 195C356.33 193.004 355.994 192.383 355.156 190.635C354.62 189.516 354.372 189.036 354.41 187.766C354.454 186.267 353.907 185.319 353.269 184C353.621 183.019 353.934 182.835 353.542 181.831C352.621 179.467 351.965 177.319 352.037 174.75L350.444 172.75L351.389 171C349.743 166.837 349.497 163.001 348.435 158.75C347.652 155.613 346.613 151.933 346.349 148.742C346.101 145.738 344.409 143.007 344.103 140C343.885 137.868 342.736 135.944 342.279 133.84C341.872 131.969 341.35 130.029 340.709 128.231C340.497 127.638 340.618 127.199 340.623 126.597C340.65 123.627 339.729 120.174 339.25 117.218L338.5 116.535L337.323 116.648ZM822.449 120.25L823.602 120.25L822.449 120.25ZM839.341 137.75L840.245 137.75L839.341 137.75ZM220.532 171.75C219.078 173.006 217.276 174.108 215.946 175.45C214.743 176.664 214.525 177.852 212.879 178.678C211.158 179.541 209.553 181.241 208.1 182.53L198.212 191.952L162.847 227.025C158.284 231.481 153.858 236.611 148.89 240.568C146.922 242.136 145.658 245.312 144.516 247.535C149.848 253.515 155.856 257.017 162.25 261.595L179 274.007L220.592 303.838C227.3 308.503 233.855 313.546 241.085 317.381L259.558 329.885C269.256 326.923 278.738 321.935 287.83 317.491C293.785 314.581 300.115 311.903 305.545 308.112L280.129 271.06L248.126 218.954C243.636 211.219 238.28 203.653 235.101 195.25L234.786 194.504C234.01 192.634 234.087 190.488 233.343 188.58C232.027 185.204 229.609 182.523 228.446 179C227.782 176.987 226.172 173.157 224.149 172.305C222.824 171.747 221.904 171.338 220.532 171.75ZM884.851 185.25L886.001 185.75L884.851 185.25ZM133.905 188.75L134.745 188.75L133.905 188.75ZM117.912 211.25L119.055 211.25L117.912 211.25ZM112.872 217.25L113.745 217.25L112.872 217.25ZM935.079 257.25C935.564 258.197 935.24 257.963 935.75 258.245L935.302 257.292L935.079 257.25ZM100.802 269.25C99.1641 270.179 98.4902 270.906 97.5043 272.5L98.3018 274.25C96.92 275.295 95.1891 275.857 94.6108 277.5L95.4856 278.75L94.25 280.547L92.5317 280.599L92.4946 281.087L92.4274 281.75L92.3973 282.373C92.138 283.872 90.6033 285.643 89.6059 286.75C89.8315 287.484 90.3228 288.274 89.9843 289.016C89.4918 290.094 88.4625 290.774 87.5628 291.5L87.6154 292.181C87.7053 294.622 85.083 295.984 85.4433 298.75L83.3393 300.25L83.9525 302.25L81.75 304.703L82.2249 306.559C81.5238 307.324 80.9046 307.926 80.0382 308.5L80.188 308.98L80.6706 310.75C79.7879 311.585 78.6805 312.182 78.5933 313.42L79.5646 314.5L77.6363 316.75L77.9198 318.25L76.4712 320L76.6242 320.535C76.7911 321.18 76.8333 321.716 76.8499 322.376C76.0917 322.82 75.5153 323.07 74.6543 323.25L74.6681 323.889C74.6265 325.729 74.0607 326.733 73.0912 328.25C72.7701 328.753 72.1505 329.155 72.1167 329.75C72.1068 329.925 72.7946 330.775 72.8177 331C72.8488 331.303 71.9272 332.966 71.75 333.357L70.0007 333.75C69.8815 334.838 70.0052 335.278 70.5 336.25L69.25 338.882L68.008 338.625C67.873 340.114 69.0205 340.392 68.606 342.075C67.0247 343.04 67.1007 342.962 66.6058 344.75L67.4181 346.5C66.7719 347.309 66.1419 348.043 65.3848 348.75L66.8502 350.447C65.4352 351.807 65.005 353.241 63.6378 354.75L63.9393 355.287C64.3751 356.132 64.239 355.801 64.3238 356.852L63.3777 357.25L63.9298 358.107C63.7475 359.027 63.6964 359.171 63.1779 359.877L64.3792 360.75C63.7855 361.409 63.3164 361.821 62.5384 362.25C62.6391 364.994 61.6224 364.452 61.0985 366.5C60.85 367.472 62.6059 371.972 62.9477 373.025C65.5052 373.946 68.0861 374.986 70.8625 374.651C71.4487 375.108 71.7003 375.534 72.4609 375.527C75.7851 375.494 79.5287 376.292 82.791 376.933C85.0469 377.377 87.3584 377.448 89.6264 377.819C91.9679 378.201 94.4287 378.873 96.8025 378.78C100.675 378.627 105.162 380.84 109 379.644L109.578 380.059C110.978 380.841 112.649 380.62 114.178 380.416C116.633 380.09 119.789 381.45 122.567 381.364C124.72 381.297 126.542 382.286 128.75 381.958C129.332 382.246 129.545 382.461 130.204 382.413C132.54 382.239 137.91 381.926 139.972 382.75C140.069 382.789 140.933 383.475 141 383.491C143.306 384.034 145.793 383.377 148.346 384.08C150.625 384.707 153.609 384.687 155.985 384.841C159.974 385.1 164.063 385.483 167.978 386.25C168.979 386.446 169.964 386.434 170.977 386.397L175.389 386.605C176.374 386.613 177.321 387.131 178.338 387.236C185.136 387.936 192.766 388.964 199.572 388.535C200.579 388.472 201.527 388.617 202.294 387.931C205.586 384.989 207.984 381.16 210.601 377.629L225.412 357.652C221.112 353.617 216.148 351.29 211.262 348.103L184.491 330.451C158.852 313.098 133.618 294.689 109.797 274.874C107.644 273.082 105.213 268.647 102.253 268.877C101.645 268.924 101.344 269.061 100.802 269.25ZM77.255 279.75L78.0694 279.75L77.255 279.75ZM544.03 300.25L545.245 300.25L544.03 300.25ZM65.9027 302.75L66.745 302.75L65.9027 302.75ZM439.761 306.714C428.068 307.263 416.523 307.911 404.929 309.661C357.068 316.886 311.779 337.02 272.5 364.944C259.535 374.161 247.05 384.221 236.383 396.104C234.115 398.63 232.239 401.468 230.148 404.134C228.289 406.505 226.156 408.751 224.603 411.343C221.971 415.732 220.341 421.136 218.343 425.857C215.434 432.732 211.996 439.513 209.724 446.637C207.144 454.731 205.033 463.06 201.923 471C199.647 476.811 196.029 481.674 193.57 487.25C192.292 490.149 193.413 494.731 191.467 497L191.67 497.934C192.267 500.971 191.252 504.171 191.617 507.25L190.881 508.5L191.161 509.172C191.618 510.403 191.573 511.088 191.009 512.25L191.65 514.5L190.953 515.75L191.241 516.3C191.653 517.127 191.518 516.793 191.716 517.75L190.803 519L191.636 522.25L191.379 522.806C190.738 524.707 191.121 526.665 191.699 528.509C192.067 529.685 191.751 531.067 191.509 532.25L191.698 532.709C192.539 534.83 192.625 536.502 192.332 538.75C194.032 541.109 192.665 541.985 193.513 544.25C193.556 544.363 194.364 545.419 194.383 545.5C194.628 546.552 193.943 546.505 194.549 547.828C195.261 549.382 195.37 550.95 195.477 552.625C195.56 553.919 196.143 555.073 196.648 556.25L196.008 557.75L196.557 558.361C196.707 558.549 202.174 581.549 203.209 584.643C210.455 606.291 224.005 626.685 237.879 644.613C244.533 653.212 251.024 661.28 259.426 668.342L275.601 681.564C292.592 694.12 311.057 704.382 330.553 712.471C331.807 712.991 338.865 714.98 339.407 715.632C339.563 715.819 339.469 716.115 339.5 716.357C342.356 715.974 346.823 718.431 349.606 719.539C356.401 722.243 363.209 724.974 370.25 726.987C377.309 729.004 384.456 730.202 391.652 731.524C394.701 732.083 397.816 733.265 400.903 733.396C403.782 733.518 407.896 733.628 410.332 735.25C411.524 734.43 412.357 734.204 413.832 734.67C414.389 734.846 414.528 734.982 414.957 735.283L415.723 735.146C418.386 734.724 421.031 735.854 423.75 735.387L425 736.094L425.938 735.761C427.243 735.344 428.047 735.616 429.337 735.859C432.039 736.366 434.642 735.844 437.25 736.921L439 736.039L439.646 736.317C441.231 736.929 443.548 736.503 445.25 736.496L455.25 736.761C458.586 736.767 462.114 736.245 465.398 736.992C473.292 737.419 480.993 736.24 488.839 735.549C491.534 735.311 494.321 736.051 496.75 734.791C498.571 735.18 499.085 734.327 500.756 734.566C502.132 734.763 503.388 734.662 504.574 733.85L505 733.504L505.636 733.526C510.567 733.618 515.275 732.352 520 731.123L539.951 725.204L563.592 717.171L586.5 706.956C591.792 704.432 597.045 702.24 602.043 699.116C607.744 695.552 613.545 691.488 618.778 687.265C621.775 684.846 624.376 681.478 627.75 679.639C627.669 678.871 627.543 678.236 627.355 677.493L630.118 675.323C635.233 671.3 638.862 665.794 643.02 660.855C651.724 650.516 658.904 639.955 666.119 628.562C674.118 615.931 681.479 603.228 686.962 589.25C690.491 580.252 692.958 570.413 695.102 561L695.187 560.244C695.481 557.826 696.108 555.712 696.327 553.25C696.334 553.165 696.62 551.982 696.75 551.815C696.937 551.575 697.676 551.413 697.686 551.25C697.695 551.094 696.916 549.728 696.889 549.5C696.829 548.996 698.03 546.668 698.231 545.974C698.494 545.064 697.872 545.015 697.828 544.25C697.778 543.374 698.749 541.158 699.109 540.25C698.929 539.75 698.601 539.28 698.568 538.75C698.434 536.656 700.262 533.013 700.504 530.75C700.644 529.445 700.206 527.804 700.804 526.619L701.105 526.152C701.772 524.922 701.75 523.034 701.75 521.663L700.97 520.75C701.687 519.887 701.229 520.167 702.361 519.941C702.275 519.093 702.119 518.325 701.902 517.5L702.178 517.046C703.112 514.966 702.507 510.908 702.684 508.514L703.339 485.25L701.971 484L702.25 483.109C703.358 482.667 703.411 482.905 703.944 481.75C703.462 480.398 701.635 476.726 701.656 475.5C701.658 475.394 702.272 474.249 702.291 474.107C702.482 472.721 701.391 470.613 700.336 469.75C700.749 468.834 701.295 468.355 700.908 467.37C700.5 466.332 699.912 465.489 699.287 464.577L699.406 463.882C699.575 462.826 699.873 461.886 699.339 460.938L698.959 460.25L698.691 459.797C698.349 459.037 698.471 458.056 698.485 457.25C697.949 456.408 697.18 455.679 697.317 454.676C697.625 452.43 696.291 452.66 696.17 451.25C696.112 450.578 696.514 449.923 696.47 449.25C696.318 446.9 692.64 442.779 691.397 440.68C689.426 437.353 688.176 433.669 686.274 430.309C680.321 419.794 673.377 409.371 665.971 399.822C661.176 393.641 656.185 387.281 650.744 381.654C647.915 378.729 644.564 376.199 641.5 373.522C618.769 353.658 594.327 338.936 565.582 329.445L547.517 323.308C544.485 322.297 540.816 321.519 537.983 320.137C536.815 319.566 536.508 318.903 536.053 317.75C536.383 315.143 534.205 311.841 533.75 308.943L532.61 309.143C531.847 310.718 533.123 315.115 533.246 317.097L502.384 311.103L483.905 308.321C473.59 307.255 463.191 307.054 452.828 306.831C448.759 306.743 443.756 306.152 439.761 306.714ZM970.255 330.75L971.151 331.25L970.255 330.75ZM48.755 344.75L49.25 345.745L48.755 344.75ZM43.3984 356.25L44.5335 356.25L43.3984 356.25ZM59.9442 363.75L60.75 364.062L59.9442 363.75ZM37.755 373.25L39.0146 373.75L37.755 373.25ZM680.255 389.25L681.066 389.25L680.255 389.25ZM97.5361 433.25C97.276 434.593 97.2238 435.375 97.5039 436.75L96.393 438.5C96.7193 439.572 97.0295 439.833 96.6408 440.891C96.2339 441.998 96.5464 442.415 96.5223 443.5C96.5138 443.885 96.3549 444.391 96.25 444.771L96.6933 445.75C95.9732 447.038 96.0027 447.049 96.25 448.51L97.2861 449.656L95.9137 450.25C95.9061 451.964 95.7926 453.247 96.75 454.757L95.4131 456C95.5645 456.956 95.7251 457.523 96.25 458.339L95.1563 459.75L95.8878 463.5L95.4779 463.792C94.8039 464.315 95.0357 464.135 94.4774 465C94.9865 465.857 95.7938 466.636 95.5091 467.628C95.2555 468.512 94.878 469.204 94.4329 470C95.0024 471.09 95.5077 472.052 95.7674 473.27L94.25 474.519L95.75 477.33C94.7318 478.003 95.2988 477.85 94.0384 477.75C93.507 479.301 95.2241 480.992 94.5599 481.979C93.7885 483.126 93.6301 484.911 93.9555 486.25C94.1151 486.907 94.2195 487.002 94.5344 487.5L93.355 490.5L93.7951 491.137C94.1745 491.732 94.5119 492.2 94.3691 492.929L94.1639 493.575C93.6902 495.262 93.7109 497.474 93.6008 499.25C93.5538 500.009 93.6286 500.6 93.4794 501.359C93.2791 502.379 93.3824 501.645 93.4451 502.812C93.5113 504.045 93.103 504.896 92.6328 506L93.25 506.963C95.1964 507.211 97.3099 507.682 99.25 507.293L100.75 508.606L104.25 507.121C105.942 507.778 106.167 507.768 107.955 507.42L109 506.488L109.75 506.766C110.865 507.145 117.132 506.612 118.25 506.022C119.204 506.276 119.449 506.498 120.406 506.194C121.935 505.71 123.533 506.249 125 505.878C125.618 505.722 126.139 505.29 126.75 505.11C127.896 504.771 129.885 505.126 131 505.443C132.421 504.84 133.424 504.063 134.954 504.404C137.684 505.014 142.036 504.024 144.879 503.701C147.514 503.548 150.287 503.585 152.891 503.219C154.318 503.018 155.536 502.471 156.971 502.766C158.505 503.082 160.585 502.251 162 501.625L163.75 501.981C165.762 499.717 163.348 495.423 164.989 493C165.101 490.468 165.738 487.926 165.738 485.433C165.738 483.775 166.358 482.061 166.624 480.411C167.128 477.283 167.304 473.781 168.145 470.75C168.693 468.772 169.476 467.435 169.449 465.347L169.813 458.864L169.174 458.721C166.379 458.061 164.182 456.685 161.531 455.741L132.479 445.204C123.309 441.73 114.389 437.338 105 434.488C102.631 433.769 100.025 432.761 97.5361 433.25ZM23.755 445.25L24.25 446.116L23.755 445.25ZM21.255 475.25L22.1635 475.75L21.255 475.25ZM1001.59 552.75L1002.68 554.739L1003.7 554.75L1002.75 552.915L1001.59 552.75ZM162.625 558.75L125.029 568.539C116.256 570.712 104.698 571.467 97.3515 576.885C97.6096 580.541 97.9104 582.627 99.6541 585.87L100.185 587L99.6467 587.426L98.1302 588.75L100.314 592.353L98.6945 594.089C99.0589 595.181 99.0574 595.233 100 595.881L101.473 595.621C101.31 596.773 100.695 597.349 100.005 598.25C100.555 599.471 101.747 600.2 103.029 600.633L104.25 600.946C104.934 601.656 105.78 602.818 106.569 603.354C107.608 604.06 108.424 603.666 109.469 604.75L108.75 605.357C107.381 605.084 107.162 604.699 105.943 605.487C105.262 605.928 104.715 606.212 103.916 606.398C103.451 607.356 103.46 607.491 103.527 608.5L102.701 609.5L104.916 613.5L104.553 614.5L107.25 617.917L111.853 616.75C112.713 617.933 112.554 618.018 112.413 619.5L111.25 620.886L109.75 620.961L109.01 619.497L108.25 619.365L107.25 620.684C107.723 623.99 108.193 626.178 109.851 629.107L110.319 629.98L110.607 630.5C110.543 632.599 111.45 633.977 112.794 635.598C113.104 635.972 113.307 636.095 113.665 636.357L120.524 633.079C127.256 630.277 133.207 625.466 139.26 621.482L147.67 616.3L165.25 603.724C169.478 600.752 173.967 598.078 177.929 594.75C177.655 593.927 177.522 593.655 177.024 593C177.145 592.074 177.442 591.593 176.936 590.791C175.418 588.382 174.412 585.409 173.21 582.802C171.528 579.152 169.622 575.618 168.485 571.75C167.873 569.669 166.427 565.913 166.508 563.75C166.542 562.851 167.402 562.656 166.581 561.932C165.363 560.859 164.841 560.156 164.25 558.65L162.625 558.75ZM709.433 587.25C707.354 591.535 705.399 595.782 703.742 600.252C702.116 604.636 700.702 611.166 698.101 614.944C697.544 615.751 697.35 616.302 697.061 617.219C695.439 622.367 692.964 627.402 690.877 632.377C686.734 642.252 682.935 651.984 677.653 661.36C675.155 665.793 671.63 669.593 669.234 674.047C668.146 676.069 666.365 677.693 664.962 679.5L657.501 689.175C649.49 698.746 640.749 708.511 631.351 716.738C621.983 724.939 611.8 731.937 601.421 738.75C597.779 741.14 594.292 743.75 590.522 745.948C588.507 747.123 586.262 747.811 584.25 748.942C579.826 751.429 574.933 754.71 570.041 756.179C569.3 756.401 568.815 756.753 568.159 757.134C563.03 760.12 557.024 762.19 551.494 764.337C540.764 768.505 528.574 773.44 516.995 774.168C510.649 774.566 503.908 776.064 497.515 776.815C494.694 777.146 492.286 777.767 489.5 777.081L488.799 776.969C488.066 776.797 487.777 776.543 487.174 776.149C483.41 773.687 477.327 773.959 472.967 773.748C459.414 773.093 446.084 773.825 432.567 774.002L407 773.867C402.427 773.902 397.935 774.658 393.37 773.873C378.189 771.262 363.755 766.349 349.486 760.641C345.445 759.024 341.227 757.704 337.258 755.945C323.126 749.685 309.514 742.443 296.103 734.775C289.272 730.87 282.173 727.081 275.666 722.665C252.964 707.258 232.053 689.829 216.822 666.711C213.402 661.519 210.558 655.935 207.632 650.454C205.831 647.081 205.089 643.249 202.03 640.75C202.165 639.902 202.278 639.548 202.683 638.75C201.345 636.753 199.553 634.65 199.134 632.25L199.533 631.25L199.075 630.562C198.179 629.157 197.892 627.522 197.318 625.98C195.315 620.599 193.966 614.875 191.58 609.662C190.705 607.749 189.432 605.24 187.75 603.974C186.314 606.19 186.589 610.849 187.209 613.405C187.442 614.363 188.088 615.206 188.65 616L188.11 617.5C188.715 618.731 189.278 619.841 189.61 621.177C190.267 623.82 192.088 626.052 192.759 628.876C193.774 631.61 195.026 634.496 195.57 637.352C196.04 639.822 198.158 643.633 199.497 645.75L199.078 647.5L200.736 649.66C202.293 651.566 202.921 653.971 204.034 656.135L209.52 665.862C211.058 668.692 213.442 670.605 215.635 672.906C217.766 675.141 219.651 677.652 221.593 680.051C237.654 699.891 257.574 718.602 279 732.52C285.213 736.556 291.877 739.956 298.378 743.495C302.366 745.667 306.256 748.329 310.354 750.247C317.582 753.63 325.294 756.213 332.652 759.315L355.238 768.358C360.423 770.397 365.565 772.8 370.941 774.292C380.58 776.967 391.069 779.764 400.988 781.092C411.46 782.494 422.322 782.545 432.857 782.182C434.809 782.115 436.848 782.495 438.75 782.355L456.064 780.618C456.915 780.552 458.677 780.407 459.485 780.75C459.561 780.783 460.459 781.404 460.5 781.413C461.655 781.655 463.946 781.213 465.185 781.136C473.077 780.652 480.03 779.107 487.66 777.162C487.141 779.087 486.849 781.231 485.947 783.008C482.57 784.491 479.517 785.811 475.75 785.81L474.265 786.795L474.25 787.417C479.208 787.736 483.95 787.036 488.879 786.636C497.758 785.914 506.395 785.042 515.089 782.983C526.953 780.173 538.019 775.743 549.352 771.385C554.394 769.446 559.769 768.345 564.755 766.279C591.56 755.174 616.572 739.642 638.25 720.318C640.984 717.881 643.457 714.913 646.026 712.285C650.596 707.61 655.259 702.954 659.437 697.917C667.473 688.229 674.156 677.971 680.845 667.34C682.535 664.654 684.789 662.23 686.305 659.466C688.686 655.127 690.168 650.063 692.135 645.511C694.606 639.789 697.725 634.285 700.023 628.5C701.188 625.565 701.855 622.468 702.848 619.477C704.437 614.692 706.812 609.77 707.627 604.804C707.978 602.665 708.635 600.437 709.394 598.416C709.738 597.502 709.596 597.991 709.556 596.991C709.412 593.339 712.216 591.202 710.112 587.359L709.433 587.25ZM29.755 612.25L30.5404 612.75L29.755 612.25ZM110.255 618.25L110.75 619.079L110.255 618.25ZM990.255 619.75L991.245 620.25L990.255 619.75ZM196.909 643.75L197.745 643.75L196.909 643.75ZM695.255 644.75L696.228 644.75L695.255 644.75ZM247 659.75L247.745 659.75L247 659.75ZM252.255 664.75L253.06 664.75L252.255 664.75ZM193.818 672.25C185.3 675.259 178.483 680.475 170.75 684.93L156.014 692.65L116 715.49C111.71 718 106.632 720.097 102.857 723.323C104.292 728.147 106.814 732.322 109.337 736.634C116.429 748.758 125.161 759.603 133.626 770.751C137.885 776.18 141.553 780.109 146.816 784.509C148.93 783.761 151.723 783.049 153.571 781.803C156.568 779.783 159.383 776.542 161.95 773.98C167.068 768.872 171.498 763.307 176.113 757.759L195.911 733.466C200.052 728.225 203.62 722.983 208.397 718.25C208.522 715.606 210.808 715.761 211.118 714.198C211.136 714.109 210.452 712.728 210.395 712.601L205.774 702.533C202.747 695.664 200.515 689.088 198.274 681.943C197.263 678.72 195.922 675.735 195.145 672.423L193.818 672.25ZM227.96 742.75C222.399 746.685 218.005 751.112 213.005 755.621L185.82 780.157L157.283 804.256C154.259 807.069 150.741 809.923 148.671 813.519C148.358 814.062 148.069 814.236 147.5 814.467C145.819 814.418 145.576 815.447 144 815.032C143.09 816.106 143.748 816.234 143.25 817.046C142.541 818.199 139.728 817.418 138.583 819.25L138.646 819.764C138.795 821.076 138.9 821.976 138.421 823.25C139.866 825.417 140.077 825.913 142.577 826.66C146.575 827.854 149.129 830.729 152.268 833.246C156.051 835.88 162.25 842.655 166.75 842.457C171.093 839.656 174.74 832.909 177.69 828.645L191.831 808.345L230.393 754.469C231.708 752.6 232.693 750.53 234.018 748.664L229.42 742.612L227.96 742.75ZM940.849 744.75L942.245 744.75L940.849 744.75ZM926.551 769.75L927.629 770.25L926.551 769.75ZM477.896 789.25L479.041 789.75L477.896 789.25ZM521.942 832.75L519.684 836.251C519.354 836.825 519.37 837.406 519.301 838.041L517.75 852.316L516.834 853.25L517.719 854.481L517.572 854.935C517.23 856.028 516.926 856.787 517.25 857.936L516.25 859.599C516.913 861.714 516.273 862.725 515.483 864.75L515.585 865.218C515.794 866.719 515.482 868.435 515.177 869.906C514.899 871.248 515.188 872.597 514.708 873.864C514.076 875.531 514.702 877.101 513.921 878.947L513.657 879.579L513.467 880C514.318 882.736 512.22 885.174 512.967 888C512.325 889.664 511.796 890.835 511.796 892.617C511.796 894.178 511.094 895.683 510.603 897.138C510.295 898.05 510.6 898.851 510.431 899.75C510.038 901.844 508.929 902.71 509.597 905C509.275 905.983 508.251 908.109 508.285 909.069C508.318 910.026 508.744 909.783 508.306 910.8C505.56 917.173 506.392 925.289 504.295 931.845C502.347 937.933 501.721 945.153 500.479 951.5C498.733 960.422 495.775 968.532 495.914 977.75C496.846 979.357 497.227 979.47 499 979.936C500.572 980.349 502.144 980.744 503.75 980.338C504.373 980.689 504.701 981.088 505.42 980.955C506.981 980.666 507.884 980.838 509.395 981.245C510.119 981.44 510.711 981.449 511.453 981.389L512.25 980.439L512.74 980.732C514.852 981.929 515.905 981.073 517.781 981.766C518.701 982.106 519.291 982.181 520.25 982.196L520.75 981.155C521.472 981.359 522.109 981.581 522.801 981.86C524.305 982.466 526.472 982.505 528.045 982.21L528.118 982.308C530.638 983.189 533.215 983.641 535.75 982.586C536.767 982.93 536.878 983.205 537.891 982.797C538.823 982.423 539.513 982.403 540.497 982.385C540.951 981.231 540.783 981.827 541 980.597L542.353 979.966C542.111 978.609 541.807 977.881 541.02 976.75C542.011 976.123 541.518 976.359 542.478 976C542.051 975.01 541.417 974.476 540.639 973.75C540.651 973.337 540.545 971.996 540.698 971.693C540.817 971.456 541.599 970.882 541.602 970.75C541.614 970.213 541.034 969.839 540.75 969.383L541.5 968.947L542.012 968.25C541.412 967.683 541.481 967.548 540.614 967.484C540.472 965.638 540.268 964.537 541.46 963C541.179 962.055 541.369 961.806 540.25 961.399C540.039 961.323 539.378 961.357 539.136 961.364L538.75 960.731C539.661 960.112 540.113 960.041 540.224 958.87L540.232 958.003C540.25 956.85 540.158 957.396 540.591 956.25L539.431 954.75C539.603 953.696 539.751 952.932 540.285 952C538.946 949.86 539.939 947.927 538.319 946.25L539.047 945.25L538.481 942.924C538.274 942.148 538.07 941.831 537.55 941.25C537.856 940.833 538.353 940.504 538.468 940C538.915 938.031 537.607 932.984 537.494 930.755C537.299 926.933 536.09 922.898 536.25 919.113C535.811 918.309 535.62 918.276 535.749 917.342C536.064 915.07 535.008 912.689 535.141 910.351C535.205 909.207 534.959 908.762 534.481 907.75C534.665 907.014 534.803 906.681 535.204 906L534.874 905.109L534.074 902.25L534.687 901.25C534.217 899.382 533.623 897.536 533.614 895.597L534.25 894.668L533.661 893.944C532.946 893.035 532.78 892.366 532.565 891.25L533.63 889.75L533.341 888.875C532.595 886.566 532.397 884.634 532.75 882.235L531.644 881L532.403 879.5C531.807 878.447 531.509 878.384 531.705 877.153C531.89 875.995 531.519 875.366 531.32 874.25L531.399 872.25L530.395 871L530.649 870.517C531.035 869.722 530.905 870.016 531.059 869C530.101 867.526 530.868 866.493 530.162 864.75L530.388 864.172C530.787 862.538 529.715 860.203 529.514 858.465C528.916 853.307 528.279 847.069 528.895 841.901C529.243 838.983 528.288 835.769 527.449 833C526.18 832.234 524.276 832.197 522.798 832.467L521.942 832.75ZM206.255 895.25L207.121 895.75L206.255 895.25ZM370.255 980.25L371.23 980.75L370.255 980.25ZM374.467 981.25L375.245 981.75L374.467 981.25Z"/>
	<path transform="scale(0.5 0.5)" d="M482.377 74.9166L481.979 74.1051L480.25 75.1516L479.801 74.8342C478.311 74.0227 475.545 73.7813 473.891 74.1473L473 74.3728C471.619 73.2792 470.059 71.6901 469.495 70C470.546 68.4114 471.768 68.6882 473.131 67.25L473.979 67.085C475.91 68.5621 476.023 67.568 478 67.3839C478.783 67.311 481.577 69.1695 482.653 69.4343C483.588 69.6646 484.291 69.726 485.072 70.3522C486.235 71.2861 486.354 71.5545 486.583 73C486.026 74.3974 485.224 74.8009 484.002 75.5399L482.377 74.9166Z"/>
	<path transform="scale(0.5 0.5)" d="M460.061 78.25C458.671 78.2194 458.361 77.8035 457.25 77.0134L456.968 75.25C458.296 75.3562 458.631 75.6978 459.75 76.4608L460.061 78.25Z"/>
	<path transform="scale(0.5 0.5)" d="M467.026 82.25C466.516 82.0563 466.355 81.631 466.047 81.1829C464.84 79.4306 464.149 78.3559 464.534 76.25C465.864 76.2256 466.53 77.3563 467.471 78.25C467.522 79.7448 467.398 80.8008 467.026 82.25Z"/>
	<path transform="scale(0.5 0.5)" d="M480.659 83.75C479.713 84.5321 480.21 84.3337 479.25 84.5152L479.06 82.75L480.546 82.75L480.659 83.75Z"/>
	<path transform="scale(0.5 0.5)" d="M435.736 88.25C434.898 88.1643 435.328 88.2954 434.485 87.75L434.606 83.25C435.795 84.4528 435.583 86.5689 435.736 88.25Z"/>
	<path transform="scale(0.5 0.5)" d="M481.55 85.75C480.546 85.8815 480.587 85.7275 479.755 85.25C480.446 85.0851 480.912 85.4763 481.55 85.75Z"/>
	<path transform="scale(0.5 0.5)" d="M552.563 123.25L551.69 123.224L551.755 122.25L552.492 122.375L552.563 123.25Z"/>
	<path transform="scale(0.5 0.5)" d="M575.003 134.002C575.57 134.682 575.43 135.139 575.5 136C575.079 135.453 575.104 134.675 575.003 134.002Z"/>
	<path transform="scale(0.5 0.5)" d="M575.875 136.498L575.5 136L575.875 136.498Z"/>
	<path transform="scale(0.5 0.5)" d="M319.543 147.25L319.139 147.855L318.514 147.75L317.916 143.25C318.992 143.393 319.245 143.827 320.066 144.5L319.543 147.25Z"/>
	<path transform="scale(0.5 0.5)" d="M552.245 145.75L551.309 145.25L552.245 145.75Z"/>
	<path transform="scale(0.5 0.5)" d="M323.75 154.014L322.997 154.334L322.25 153.902C322.359 151.663 321.927 149.46 321.602 147.25L322.622 147.449L323.915 150.75C324.558 152.354 324.378 152.417 323.75 154.014Z"/>
	<path transform="scale(0.5 0.5)" d="M320.684 156.75L319.631 156.474L319.63 154.75L320.522 154.844L320.684 156.75Z"/>
	<path transform="scale(0.5 0.5)" d="M223.486 186.75L222.425 186.25L223.486 186.75Z"/>
	<path transform="scale(0.5 0.5)" d="M192.75 213.933C191.943 213.674 192.346 213.879 191.581 213.25L192.405 212.25C192.776 212.361 193.145 212.58 193.494 212.75L192.75 213.933Z"/>
	<path transform="scale(0.5 0.5)" d="M105.173 297.25C104.582 298.279 104.56 298.455 103.5 298.946L102.978 298L103.831 296.25L102.25 294.904L102.489 293.75C103.206 293.796 102.964 293.705 103.745 294.25L104.5 294.845L105.566 293.627L106.329 294.097C106.134 295.387 105.853 296.137 105.173 297.25Z"/>
	<path transform="scale(0.5 0.5)" d="M107.25 301.245L106.794 301.349L106.106 299.75L107.087 299.778L107.25 301.245Z"/>
	<path transform="scale(0.5 0.5)" d="M62.5025 303.624L62.9649 304.082L62.5025 303.624Z"/>
	<path transform="scale(0.5 0.5)" d="M979.245 348.75L977.755 348.25L979.245 348.75Z"/>
	<path transform="scale(0.5 0.5)" d="M27.745 412.75L26.8567 412.25L27.745 412.75Z"/>
	<path transform="scale(0.5 0.5)" d="M114.567 450.25C113.927 450.29 113.35 449.969 112.755 449.75C113.964 449.636 113.681 449.641 114.567 450.25Z"/>
	<path transform="scale(0.5 0.5)" d="M706.564 474.007L705.949 475.06L706.564 474.007Z"/>
	<path transform="scale(0.5 0.5)" d="M719.231 552.75L718.37 552.25L719.231 552.75Z"/>
	<path transform="scale(0.5 0.5)" d="M111.406 588.75L110.666 589.184C109.247 589.747 108.771 589.152 107.594 588.427C107.449 586.993 107.685 586.951 108.53 585.75C110.414 585.302 110.934 585.533 112.75 586.042L113.085 587.25L111.406 588.75Z"/>
	<path transform="scale(0.5 0.5)" d="M115.75 605.524L115.125 605.816C113.803 605.771 113.116 605.047 112.148 604.25C112.489 602.687 112.594 602.429 113.668 601.25C114.982 601.182 116.289 601.303 117.293 602.205C117.21 603.825 116.728 604.318 115.75 605.524ZM113.833 603.25L114.951 603.75L113.833 603.25Z"/>
	<path transform="scale(0.5 0.5)" d="M66.0455 718.953L65.5356 719.906L66.0455 718.953Z"/>
	<path transform="scale(0.5 0.5)" d="M129 737L129.312 735.483L129.998 735.097C129.73 736.091 129.868 736.38 129 737Z"/>
	<path transform="scale(0.5 0.5)" d="M129 737C128.756 737.693 128.813 738.161 128.129 738.497C128.302 738.168 128.698 737.188 129 737Z"/>
	<path transform="scale(0.5 0.5)" d="M939.974 750.529L940.375 750.003L939.974 750.529Z"/>
	<path transform="scale(0.5 0.5)" d="M157.127 823.179L155.75 824.722C155.106 824.633 154.416 824.575 153.833 824.25C152.561 823.541 151.447 822.587 150.925 821.25C151.614 819.697 152.087 818.805 153.436 817.75C154.635 817.491 155.676 817.878 156.828 818.185C158.362 819.651 158.684 820.042 159.322 822.051L158.899 822.821L157.522 822.37L157.127 823.179Z"/>
	<path transform="scale(0.5 0.5)" d="M165.661 830.34C166.466 831.235 166.495 831.304 166.635 832.5L165.5 833.632L164.266 833.571L163.5 832.506L164.622 832.384L164.817 831.19L163.933 831.343L163.5 832.506C162.639 831.921 163.008 832.315 162.48 831.25C163.114 830.163 163.106 829.989 164.25 829.517L165.661 830.34Z"/>
	<path transform="scale(0.5 0.5)" d="M450.092 858.75L449.274 858.25L450.092 858.75Z"/>
	<path transform="scale(0.5 0.5)" d="M468.75 867.343C467.516 867.492 468.111 867.594 466.971 867L466.804 865.75C467.496 865.694 468.098 866.021 468.745 866.25L468.75 867.343Z"/>
	<path transform="scale(0.5 0.5)" d="M194.755 872.75C193.681 872.626 193.258 872.842 192.52 872L194.326 869.75L195.614 869.941C196.142 871.122 196.357 871.316 196.103 872.562L194.755 872.75Z"/>
	<path transform="scale(0.5 0.5)" d="M186.093 880.124L185.482 880.509L184.25 879.968C184.571 878.676 185.909 879.409 186.97 878.25L186.435 876.75C187.501 875.392 189.541 874.573 191.041 873.75L191.464 874.137L190.453 875.997C189.762 876.132 189.37 876.294 188.75 876.598L189 876.917C189.61 876.665 190.097 876.492 190.75 876.353L190.653 877.5C189.58 879.003 187.751 879.478 186.093 880.124Z"/>
	<path transform="scale(0.5 0.5)" d="M442.75 911.568L441.319 911.427L441.315 910.25L442.665 910.328L442.75 911.568Z"/>
	<path transform="scale(0.5 0.5)" d="M998.995 916.995L999.391 916.503L998.995 916.995Z"/>
	<path transform="scale(0.5 0.5)" d="M998.995 916.995L998.586 917.497L998.995 916.995Z"/>
	<path transform="scale(0.5 0.5)" d="M998 918.5L998.396 918.003L998 918.5Z"/>
	<path transform="scale(0.5 0.5)" d="M998 918.5L997.503 919.497L998 918.5Z"/>
	<path transform="scale(0.5 0.5)" d="M997.361 920.619L997.2 920.478L997.361 920.619Z"/>
	<path transform="scale(0.5 0.5)" d="M421.75 971.016L421.173 970.041L422.548 967.75L422.998 968.141C422.858 969.838 422.968 969.854 421.75 971.016Z"/>
	<path transform="scale(0.5 0.5)" d="M520.75 974.245L520.255 973.25L520.75 974.245Z"/>
	<path transform="scale(0.5 0.5)" d="M415.508 977.026C415.974 976.406 416.156 975.948 416.879 975.633L416.643 976.852L415.508 977.026Z"/>
	<path transform="scale(0.5 0.5)" d="M415.508 977.026L416.25 978.262L417.848 978.61L417.75 979.692L416.917 980.299C415.403 979.669 415.381 979.686 414.601 978.25C415.023 977.204 414.69 977.588 415.508 977.026Z"/>
</svg>
